<?xml version="1.0" encoding="utf-8"?>
<!-- Generator: Adobe Illustrator 16.0.0, SVG Export Plug-In . SVG Version: 6.00 Build 0)  -->
<!DOCTYPE svg PUBLIC "-//W3C//DTD SVG 1.1//EN" "http://www.w3.org/Graphics/SVG/1.1/DTD/svg11.dtd">
<svg version="1.1" id="Isolation_Mode" xmlns="http://www.w3.org/2000/svg" xmlns:xlink="http://www.w3.org/1999/xlink" x="0px"
	 y="0px" width="390px" height="350px" viewBox="0 0 390 350" enable-background="new 0 0 390 350" xml:space="preserve">
<style>
	circle, path, rect, polygon {fill: #ffffff;}
</style>
<g opacity="0.25">
	<path d="M47.625,150.637c-0.002-3.021-2.46-5.48-5.486-5.48l-32.178,0.006c-3.022,0.002-5.481,2.463-5.482,5.486
		l0.019,69.699c0.003,3.022,2.462,5.479,5.48,5.479h0.005l32.177-0.007c3.023,0,5.483-2.461,5.483-5.486L47.625,150.637z
		 M42.16,224.506l-32.177,0.01l-0.005,0.654v-0.654c-2.295,0-4.165-1.869-4.167-4.168l-0.019-69.699c0-2.299,1.87-4.17,4.169-4.17
		l32.181-0.01c2.297,0,4.167,1.869,4.168,4.168l0.019,69.697C46.33,222.637,44.459,224.506,42.16,224.506z"/>
	<rect x="23.222" y="151" width="5.532" height="1.313"/>
	<path d="M26.07,216.303c-0.786,0-1.523,0.305-2.078,0.859c-0.554,0.557-0.858,1.293-0.857,2.074
		c-0.001,0.785,0.303,1.52,0.856,2.074c0.554,0.556,1.292,0.859,2.077,0.859h0.004c0.786,0,1.523-0.306,2.077-0.859
		c0.554-0.557,0.858-1.291,0.857-2.078C29.005,217.617,27.691,216.303,26.07,216.303z M27.22,220.383
		c-0.306,0.307-0.713,0.477-1.147,0.477h-0.004c-0.434,0-0.841-0.17-1.147-0.477c-0.305-0.307-0.473-0.712-0.472-1.146
		c-0.001-0.434,0.167-0.84,0.473-1.146c0.307-0.307,0.715-0.475,1.155-0.475c0.891,0,1.615,0.727,1.616,1.62
		C27.693,219.67,27.525,220.076,27.22,220.383z"/>
	<path d="M9.23,214.225h33.664v-58.62H9.23V214.225z M10.544,156.918h31.037v55.994H10.544V156.918z"/>
	<path d="M370.623,253.23h-8.827v-4.881c-0.001-3.022-2.464-5.482-5.489-5.482H345.45
		c-1.464,0-2.841,0.57-3.875,1.605c-1.035,1.034-1.604,2.411-1.603,3.877v4.881h-20.471v-1.152c0-1.232-1.005-2.236-2.238-2.236
		h-5.138c-0.599,0-1.159,0.232-1.581,0.655s-0.654,0.985-0.654,1.581v1.152h-2.399c-1.464,0.002-2.839,0.574-3.875,1.607
		c-1.034,1.035-1.603,2.412-1.603,3.875v4.264v27.908v2.963c0,3.021,2.463,5.48,5.488,5.484h63.132
		c1.466-0.004,2.841-0.572,3.875-1.607c1.034-1.037,1.604-2.412,1.604-3.877v-2.963v-27.908v-4.262
		C376.111,255.691,373.65,253.232,370.623,253.23z M311.206,252.078c0-0.246,0.095-0.479,0.271-0.652
		c0.176-0.176,0.404-0.271,0.651-0.271h5.138c0.512,0,0.926,0.415,0.926,0.925v1.15h-6.984L311.206,252.078L311.206,252.078z
		 M367.542,276.281c0,9.184-7.474,16.658-16.657,16.658s-16.656-7.477-16.656-16.658c0-9.184,7.474-16.657,16.656-16.657
		C360.068,259.624,367.542,267.098,367.542,276.281z M364.255,264.289h10.544v25.285h-11.833c3.616-3.289,5.89-8.031,5.89-13.293
		C368.855,271.678,367.111,267.473,364.255,264.289z M332.915,276.281c0,5.262,2.272,10.004,5.89,13.293h-35.476v-25.285h34.187
		C334.657,267.473,332.915,271.678,332.915,276.281z M374.799,293.85c0,1.113-0.431,2.16-1.218,2.947
		c-0.786,0.787-1.833,1.223-2.946,1.225h-63.132c-2.302-0.002-4.175-1.875-4.175-4.174v-2.961h37.104
		c2.946,2.113,6.557,3.365,10.451,3.365c3.896,0,7.504-1.252,10.451-3.365h13.464L374.799,293.85L374.799,293.85z M362.951,262.977
		c-3.192-2.896-7.426-4.664-12.067-4.664c-4.64,0-8.875,1.77-12.065,4.664h-35.489v-4.262c-0.002-1.111,0.431-2.16,1.218-2.947
		s1.833-1.223,2.945-1.223h33.795v-6.195c-0.001-1.113,0.431-2.16,1.217-2.947c0.788-0.785,1.833-1.223,2.946-1.225l10.854,0.002
		c2.303,0,4.176,1.872,4.176,4.172v6.193h10.142c2.302,0,4.176,1.871,4.176,4.172v4.26H362.951L362.951,262.977z"/>
	<path d="M343.257,255.753h15.255v-9.603h-15.255V255.753z M344.57,247.463h12.628v6.977H344.57V247.463z"/>
	<path d="M336.689,276.281c0,7.826,6.367,14.193,14.193,14.193c7.827,0,14.195-6.367,14.195-14.193
		s-6.368-14.193-14.195-14.193C343.059,262.088,336.689,268.455,336.689,276.281z M363.766,276.281
		c0,7.102-5.776,12.881-12.881,12.881c-7.103,0-12.881-5.779-12.881-12.881s5.778-12.881,12.881-12.881
		C357.988,263.4,363.766,269.18,363.766,276.281z"/>
	<path d="M179.21,221.879h-3.845v-4.615h-34.782v32.916c0,2.576,2.099,4.676,4.679,4.676h25.433
		c1.249,0,2.422-0.486,3.304-1.371c0.881-0.881,1.366-2.057,1.365-3.305v-9.576h3.845c4.158,0,7.542-4.201,7.542-9.36
		C186.751,226.081,183.368,221.879,179.21,221.879z M174.051,250.18c0,0.897-0.348,1.742-0.982,2.377
		c-0.633,0.635-1.477,0.984-2.374,0.984h-25.433c-1.856,0-3.367-1.51-3.367-3.361v-31.604h32.155L174.051,250.18L174.051,250.18z
		 M179.21,239.29h-3.845v-16.097h3.845c3.435,0,6.228,3.607,6.228,8.048S182.645,239.29,179.21,239.29z"/>
	<path d="M150.883,208.93c1.024,1.932,1.673,3.975-0.501,5.818l0.85,1.002c3.28-2.783,1.487-6.164,0.811-7.438
		c-0.313-0.593-0.787-1.485-0.914-2.498c-0.161-1.291,0.303-2.377,1.415-3.32l-0.849-1.002c-1.457,1.234-2.086,2.744-1.869,4.482
		C149.981,207.23,150.546,208.293,150.883,208.93z"/>
	<path d="M156.999,214.748l0.851,1.002c3.281-2.783,1.486-6.164,0.81-7.438c-1.023-1.934-1.673-3.977,0.502-5.818
		l-0.849-1.002c-3.281,2.781-1.487,6.164-0.812,7.438C158.525,210.861,159.175,212.904,156.999,214.748z"/>
	<path d="M164.117,208.93c1.026,1.932,1.675,3.975-0.5,5.818l0.849,1.002c3.281-2.783,1.487-6.164,0.812-7.436
		c-0.313-0.595-0.787-1.486-0.914-2.5c-0.161-1.291,0.301-2.375,1.415-3.32l-0.849-1.002c-1.458,1.234-2.087,2.744-1.87,4.486
		C163.217,207.23,163.78,208.293,164.117,208.93z"/>
	<path d="M275.175,205.775c0,0-0.001,0-0.002,0h-23.916c-2.821-5.129-8.278-8.611-14.534-8.611
		s-11.712,3.482-14.535,8.609h-23.916c-1.232,0-2.236,1.004-2.236,2.237v11.466c0.001,0.598,0.232,1.155,0.654,1.58
		c0.422,0.42,0.982,0.65,1.578,0.65c0.002,0,0.002,0,0.004,0l23.916,0.002c2.402,4.365,6.713,7.535,11.801,8.381v1.305
		c0,0.709,0.578,1.287,1.289,1.287h2.895c0.71,0,1.286-0.578,1.286-1.287v-1.305c5.087-0.846,9.396-4.016,11.8-8.381h23.916
		c1.234,0,2.237-1.002,2.237-2.236v-11.467C277.408,206.777,276.406,205.775,275.175,205.775z M198.27,220.396L198.27,220.396
		c-0.248,0-0.478-0.097-0.65-0.271c-0.176-0.176-0.271-0.406-0.271-0.649v-11.466c0-0.512,0.414-0.924,0.924-0.924l23.271-0.001
		c-0.896,2.038-1.398,4.289-1.398,6.656c0,2.363,0.502,4.615,1.396,6.652H198.27V220.396z M237.378,228.993v-2.491h-1.313v2.491
		c-7.896-0.337-14.256-6.696-14.594-14.595h2.326v-1.312h-2.326c0.338-7.895,6.697-14.258,14.594-14.593v2.325h1.313v-2.325
		c7.897,0.335,14.259,6.698,14.595,14.593h-2.326v1.312h2.326C251.637,222.297,245.275,228.656,237.378,228.993z M276.096,219.475
		c0,0.51-0.414,0.924-0.923,0.924h-23.271c0.896-2.039,1.398-4.289,1.398-6.653c0-2.366-0.501-4.614-1.396-6.654h23.27
		c0.001,0,0.001,0,0.001,0c0.509,0,0.921,0.413,0.921,0.921V219.475z"/>
	<path d="M236.723,211.979c-0.974,0-1.765,0.793-1.765,1.767c0,0.737,0.459,1.372,1.106,1.633v8.896h1.312v-8.896
		c0.443-0.179,0.799-0.53,0.979-0.979h8.018v-1.312h-8.018C238.094,212.438,237.461,211.979,236.723,211.979z"/>
	<path d="M77.356,303.542H36.369c-0.136,0-0.269,0.04-0.379,0.12l-9.971,7.039c-0.174,0.125-0.277,0.324-0.277,0.539
		v1.455c-2.228-0.638-4.732-0.974-7.303-0.974c-8.559,0-15.263,3.567-15.263,8.118c0,4.554,6.705,8.12,15.263,8.12
		c2.662,0,5.145-0.348,7.303-0.958v1.44c0,0.214,0.103,0.414,0.277,0.536l9.971,7.041c0.11,0.078,0.243,0.121,0.379,0.121h40.987
		c2.173,0,3.941-1.771,3.941-3.944v-24.713C81.297,305.311,79.529,303.542,77.356,303.542z M18.439,326.648
		c-7.561,0-13.95-3.116-13.95-6.809c0-3.688,6.389-6.805,13.95-6.805c2.593,0,5.104,0.357,7.303,1.032v11.534
		C23.602,326.262,21.093,326.648,18.439,326.648z M79.984,332.199c0,1.453-1.179,2.631-2.628,2.631H36.577l-9.522-6.725v-1.521
		c2.241-0.803,4.04-1.916,5.199-3.232c0.255,0.059,0.52,0.093,0.792,0.093c1.984,0,3.599-1.615,3.599-3.603
		c0-1.981-1.615-3.599-3.599-3.599c-1.985,0-3.599,1.616-3.599,3.599c0,1.213,0.604,2.284,1.525,2.938
		c-0.931,0.921-2.281,1.729-3.917,2.369V311.58l9.522-6.725h40.779c1.449,0,2.628,1.181,2.628,2.632V332.199z M33.107,317.561
		c1.231,0.032,2.223,1.043,2.223,2.281c0,1.239-0.991,2.248-2.221,2.283c0.383-0.723,0.593-1.486,0.593-2.283
		C33.702,319.064,33.501,318.298,33.107,317.561z M31.801,317.928c0.044,0.071,0.089,0.142,0.129,0.213
		c0.304,0.558,0.459,1.129,0.459,1.701c0,0.662-0.208,1.306-0.589,1.914c-0.625-0.408-1.04-1.113-1.04-1.914
		C30.76,319.042,31.175,318.336,31.801,317.928z"/>
	<path d="M46.526,318.965c-1.387-0.537-1.998-0.999-1.998-1.922c0-0.686,0.522-1.508,1.894-1.508
		c0.909,0,1.581,0.285,1.894,0.479l0.357-1.073c-0.433-0.238-1.193-0.479-2.207-0.479c-1.954,0-3.25,1.165-3.25,2.73
		c0,1.398,1.013,2.266,2.653,2.832c1.356,0.508,1.894,1.06,1.894,1.998c0,1.014-0.775,1.698-2.102,1.698
		c-0.895,0-1.729-0.28-2.312-0.642l-0.343,1.073c0.537,0.356,1.596,0.655,2.564,0.655c2.371,0,3.504-1.355,3.504-2.894
		C49.075,320.441,48.226,319.637,46.526,318.965z"/>
	<path d="M53.52,314.609l-3.415,10.051h1.342l1.044-3.16h3.563l1.074,3.16h1.387l-3.429-10.051H53.52z
		 M52.759,320.484l0.983-2.906c0.194-0.61,0.358-1.237,0.492-1.818h0.046c0.148,0.581,0.297,1.179,0.506,1.833l1,2.895h-3.027
		V320.484z"/>
	<polygon points="61.288,314.609 59.976,314.609 59.976,324.66 65.583,324.66 65.583,323.572 61.288,323.572 	"/>
	<polygon points="68.326,319.949 72.218,319.949 72.218,318.875 68.326,318.875 68.326,315.701 72.456,315.701 
		72.456,314.609 67.014,314.609 67.014,324.66 72.68,324.66 72.68,323.572 68.326,323.572 	"/>
	<path d="M261.23,248.77l-5.133-9.219c-0.115-0.211-0.336-0.338-0.572-0.338c-0.238,0-0.459,0.127-0.574,0.338
		l-5.133,9.219H226.42l0.105,0.75c0.15,1.076,3.729,26.392,4.142,28.111c0.903,3.76,3.308,4.551,5.166,4.551h39.384
		c1.857,0,4.26-0.791,5.164-4.551c0.414-1.722,3.99-27.035,4.143-28.111l0.105-0.75H261.23L261.23,248.77z M255.525,241.221
		l4.203,7.549h-8.406L255.525,241.221z M279.104,277.324c-0.571,2.384-1.845,3.544-3.889,3.544h-39.382
		c-2.044,0-3.315-1.16-3.888-3.544c-0.312-1.293-2.702-17.961-4.014-27.24h21.154l-1.993,3.578
		c-0.176,0.318-0.062,0.716,0.255,0.895c0.317,0.176,0.717,0.062,0.894-0.255l2.348-4.218h9.869l2.349,4.218
		c0.12,0.214,0.344,0.337,0.573,0.337c0.108,0,0.218-0.027,0.319-0.082c0.316-0.179,0.431-0.576,0.254-0.895l-1.992-3.578h21.155
		C281.807,259.363,279.415,276.031,279.104,277.324z"/>
	<path d="M276.301,261.484h-42.609c-0.36,0-0.654,0.295-0.654,0.658c0,0.359,0.294,0.654,0.654,0.654h42.609
		c0.362,0,0.656-0.295,0.656-0.654C276.958,261.779,276.664,261.484,276.301,261.484z"/>
	<path d="M231.159,256.93c0,0.361,0.293,0.656,0.655,0.656h46.362c0.363,0,0.657-0.295,0.657-0.656
		c0-0.363-0.294-0.656-0.657-0.656h-46.362C231.453,256.271,231.159,256.566,231.159,256.93z"/>
	<path d="M274.787,266.111h-39.58c-0.361,0-0.656,0.293-0.656,0.656c0,0.359,0.295,0.654,0.656,0.654h39.58
		c0.363,0,0.656-0.295,0.656-0.654C275.443,266.404,275.148,266.111,274.787,266.111z"/>
	<path d="M273.271,275.361h-36.549c-0.363,0-0.658,0.293-0.658,0.656c0,0.361,0.295,0.657,0.658,0.657h36.549
		c0.361,0,0.655-0.296,0.655-0.657C273.93,275.654,273.635,275.361,273.271,275.361z"/>
	<path d="M274.098,270.736h-38.201c-0.362,0-0.658,0.295-0.658,0.656s0.296,0.656,0.658,0.656h38.201
		c0.363,0,0.657-0.295,0.657-0.656S274.461,270.736,274.098,270.736z"/>
	<path d="M196.089,143.053c-0.075-0.354-0.425-0.58-0.78-0.505l-7.973,1.71c-0.214,0.045-0.392,0.195-0.473,0.398
		l-2.821,7.1H138.25c-0.192,0-0.374,0.084-0.499,0.229c-0.124,0.146-0.18,0.339-0.15,0.528l3.228,20.582
		c0.048,0.306,0.302,0.537,0.61,0.555l33.77,1.977l9.063,9.904h-44.504c-0.363,0-0.657,0.295-0.657,0.656s0.294,0.655,0.657,0.655
		h45.996c0.261,0,0.496-0.153,0.601-0.392c0.105-0.238,0.059-0.518-0.117-0.709l-9.973-10.896l11.678-29.382l7.629-1.633
		C195.938,143.758,196.164,143.408,196.089,143.053z M139.019,153.068h44.501l-8.441,21.237l-33.034-1.935L139.019,153.068z"/>
	<path d="M180.26,187.952c-1.623,0-2.942,1.321-2.942,2.942c0,1.623,1.319,2.941,2.942,2.941
		c1.623,0,2.942-1.318,2.942-2.941C183.202,189.273,181.882,187.952,180.26,187.952z M180.26,192.523
		c-0.898,0-1.628-0.729-1.628-1.629c0-0.898,0.73-1.629,1.628-1.629c0.898,0,1.629,0.729,1.629,1.629
		C181.889,191.794,181.158,192.523,180.26,192.523z"/>
	<path d="M143.125,187.952c-1.623,0-2.942,1.321-2.942,2.942c0,1.623,1.319,2.941,2.942,2.941
		c1.622,0,2.943-1.318,2.943-2.941C146.068,189.273,144.747,187.952,143.125,187.952z M143.125,192.523
		c-0.898,0-1.628-0.729-1.628-1.629c0-0.898,0.73-1.629,1.628-1.629c0.899,0,1.629,0.729,1.629,1.629
		C144.754,191.794,144.023,192.523,143.125,192.523z"/>
	<path d="M172.829,168.891h-27.426c-0.363,0-0.657,0.293-0.657,0.656c0,0.362,0.294,0.656,0.657,0.656h27.426
		c0.362,0,0.657-0.294,0.657-0.656C173.486,169.184,173.191,168.891,172.829,168.891z"/>
	<path d="M175.384,166.277c0-0.364-0.294-0.66-0.656-0.66h-30.084c-0.363,0-0.656,0.296-0.656,0.66
		c0,0.36,0.293,0.656,0.656,0.656h30.084C175.09,166.934,175.384,166.638,175.384,166.277z"/>
	<path d="M176.902,163.004c0-0.361-0.294-0.656-0.657-0.656h-32.361c-0.363,0-0.657,0.295-0.657,0.656
		c0,0.363,0.294,0.656,0.657,0.656h32.361C176.608,163.66,176.902,163.367,176.902,163.004z"/>
	<path d="M178.042,159.734c0-0.363-0.293-0.657-0.657-0.657h-34.26c-0.363,0-0.656,0.294-0.656,0.657
		c0,0.361,0.293,0.656,0.656,0.656h34.26C177.748,160.391,178.042,160.096,178.042,159.734z"/>
	<path d="M178.524,157.118c0.363,0,0.657-0.294,0.657-0.657c0-0.363-0.294-0.656-0.657-0.656h-35.779
		c-0.363,0-0.657,0.293-0.657,0.656c0,0.363,0.294,0.657,0.657,0.657H178.524z"/>
	<path d="M142.407,22.69L125.023,8.222c-1.151-1.011-2.516-1.546-3.944-1.546H97.75
		c-1.428,0-2.793,0.535-3.932,1.535L76.422,22.69c-0.278,0.231-0.316,0.644-0.086,0.923l8.241,9.969
		c0.23,0.281,0.645,0.32,0.924,0.09l6.76-5.59v32.68c0,0.361,0.294,0.657,0.657,0.657h32.992c0.362,0,0.657-0.296,0.657-0.657
		v-32.68l6.759,5.59c0.28,0.23,0.694,0.191,0.925-0.09l8.242-9.969C142.724,23.334,142.685,22.922,142.407,22.69z M116.14,7.99
		c-0.332,3.418-3.22,6.102-6.725,6.102c-3.506,0-6.394-2.684-6.725-6.102H116.14z M133.658,32.24l-7.329-6.057
		c-0.196-0.162-0.468-0.196-0.698-0.088c-0.23,0.107-0.377,0.338-0.377,0.592v33.418h-31.68V26.688c0-0.254-0.146-0.484-0.376-0.592
		c-0.231-0.111-0.502-0.074-0.698,0.088l-7.33,6.057l-7.406-8.959L94.671,9.209c0.634-0.557,1.683-1.217,3.079-1.219h3.622
		c0.335,4.143,3.813,7.414,8.043,7.414c4.229,0,7.707-3.271,8.042-7.414h3.622c1.396,0.002,2.444,0.662,3.092,1.229l16.893,14.062
		L133.658,32.24z"/>
	<path d="M120.986,31.385h-8.428c-0.362,0-0.656-0.295-0.656-0.656v-9.303c0-0.365,0.294-0.657,0.656-0.657h8.428
		c0.363,0,0.657,0.292,0.657,0.657v9.303C121.643,31.09,121.349,31.385,120.986,31.385z M113.215,30.072h7.115v-7.991h-7.115V30.072
		z"/>
	<path d="M120.986,24.326h-8.428c-0.362,0-0.656-0.296-0.656-0.657c0-0.363,0.294-0.657,0.656-0.657h8.428
		c0.363,0,0.657,0.294,0.657,0.657C121.643,24.03,121.349,24.326,120.986,24.326z"/>
	<path d="M373.562,321.404v-0.006l-0.266-0.197c-0.244-0.18-6.047-4.417-14.971-4.417
		c-7.521,0-12.826,3.007-14.453,4.062c-0.627-0.651-1.968-1.66-4.279-1.66c-2.311,0-3.65,1.009-4.275,1.66
		c-1.629-1.054-6.935-4.062-14.455-4.062c-8.924,0-14.729,4.237-14.971,4.417l-0.166,0.125c-0.045,0.031-1.035,0.726-1.035,1.186
		v2.674c0,0.473,0.381,0.854,0.852,0.854h0.346c0.65,5.415,2.84,13.086,9.869,15.59l0.012,0.029l0.035-0.016
		c1.467,0.518,3.145,0.811,5.061,0.811c6.189,0,10.793-3.618,13.31-10.464c1.671-4.549,1.896-9.024,1.922-10.045
		c0.296-0.373,1.328-1.446,3.5-1.446c2.173,0,3.205,1.073,3.5,1.446c0.03,1.021,0.251,5.496,1.923,10.045
		c2.518,6.846,7.118,10.464,13.312,10.464c11.146,0,14.187-9.861,14.974-16.414h0.336c0.473,0,0.854-0.383,0.854-0.854v-2.674
		C374.489,322.136,373.832,321.605,373.562,321.404z M310.826,320.072l8.188,20.955c-0.791-0.093-1.546-0.246-2.263-0.463
		l-7.696-19.695C309.57,320.611,310.162,320.342,310.826,320.072z M308.782,332.551c-1.153-2.922-1.804-6.631-1.839-10.479
		c0.203-0.138,0.522-0.338,0.945-0.58l7.202,18.429C312.298,338.574,310.186,336.109,308.782,332.551z M332.93,331.566
		c-2.344,6.354-6.402,9.573-12.064,9.573c-0.137,0-0.266-0.013-0.4-0.015l-8.41-21.521c2.332-0.816,5.331-1.508,8.812-1.508
		c7.418,0,12.681,3.155,13.911,3.972C334.727,323.271,334.448,327.451,332.93,331.566z M349.029,319.786l8.332,21.321
		c-0.771-0.054-1.512-0.171-2.219-0.353l-7.903-20.229C347.775,320.284,348.372,320.029,349.029,319.786z M346.26,331.566
		c-1.518-4.115-1.796-8.293-1.846-9.498c0.306-0.203,0.863-0.554,1.643-0.959l7.463,19.103
		C350.309,338.838,347.876,335.947,346.26,331.566z M370.408,332.551c-2.188,5.549-6.104,8.426-11.629,8.575l-8.506-21.769
		c2.213-0.705,4.941-1.261,8.055-1.261c7.435,0,12.705,3.172,13.92,3.976C372.21,325.92,371.561,329.63,370.408,332.551z"/>
	<path d="M174.728,58.271h-22.497c-0.235,0-0.453,0.127-0.569,0.33c-0.091,0.158-9.335,15.846-30.778,15.846
		c-5.208,0-8.644,0.945-10.505,2.89c-1.837,1.919-1.729,4.396-1.65,6.203c0.016,0.342,0.03,0.667,0.03,0.968v4.246h18.617
		c8.552,0,22.387-2.729,25.832-3.438v3.438h22.177v-4.246v-0.656V58.928C175.384,58.564,175.09,58.271,174.728,58.271z
		 M127.375,87.443h-17.304v-2.279h36.944C141.295,86.187,133.111,87.443,127.375,87.443z M174.071,87.443h-19.55v-2.279h19.55
		V87.443z M160.033,83.852h-6.826h-43.151c-0.004-0.121-0.01-0.244-0.016-0.368c-0.077-1.745-0.163-3.724,1.288-5.24
		c1.578-1.648,4.792-2.482,9.555-2.482c8.404,0,14.946-2.353,19.706-5.078l3.264,3.264c0.127,0.129,0.295,0.192,0.464,0.192
		c0.168,0,0.336-0.063,0.464-0.192c0.257-0.257,0.257-0.673,0-0.931l-3.029-3.027c1.156-0.718,2.193-1.449,3.111-2.162l2.967,2.968
		c0.128,0.127,0.296,0.192,0.464,0.192c0.167,0,0.337-0.065,0.464-0.192c0.256-0.257,0.256-0.673,0-0.928L145.89,67
		c1.046-0.871,1.966-1.732,2.763-2.547l2.895,2.896c0.129,0.129,0.297,0.192,0.465,0.192c0.167,0,0.336-0.063,0.464-0.192
		c0.257-0.257,0.257-0.671,0-0.929l-2.921-2.922c1.648-1.811,2.643-3.279,3.042-3.912h21.471v24.268h-14.036V83.852z"/>
	<path d="M289.799,4.794c-0.003-0.001-0.008-0.002-0.011-0.005c-0.099-0.051-0.204-0.072-0.308-0.07
		c-1.022-0.242-2.035-0.428-3.021-0.563c-0.238-1.867-2.402-2.116-4.309-2.116c-1.902,0-4.066,0.249-4.307,2.116
		c-0.986,0.137-1.998,0.322-3.021,0.563c-0.104-0.002-0.208,0.021-0.308,0.07c-0.002,0.003-0.007,0.004-0.013,0.008
		c-8.278,2.046-17.101,7.765-17.101,20.533v9.435c0,2.427,1.304,2.975,2.427,2.997v14.004c0,2.175,1.499,3.334,2.581,3.334
		c0.703,0,1.714-0.516,3.387-1.37c3.473-1.772,9.28-4.737,16.354-4.737c7.074,0,12.881,2.965,16.354,4.737
		c1.672,0.854,2.684,1.37,3.389,1.37c1.082,0,2.578-1.159,2.578-3.334V37.762c1.125-0.022,2.428-0.567,2.428-2.997V25.33
		C306.898,12.562,298.081,6.843,289.799,4.794z M301.32,35.441c-3.02-0.996-8.493-2.336-19.168-2.336
		c-10.672,0-16.147,1.34-19.166,2.336V22.736c0-7.135,7.187-14.193,12.08-16.752c2.275-0.538,4.677-0.824,7.086-0.824
		c2.412,0,4.81,0.286,7.086,0.824c4.894,2.557,12.082,9.616,12.082,16.752V35.441z M265.289,36.131
		c3.195-0.846,8.322-1.715,16.863-1.715c8.543,0,13.67,0.869,16.865,1.715v10.533c0,0.676-0.455,1.228-0.771,1.263
		c-0.16-0.044-0.602-0.247-1.031-0.444c-2.322-1.068-7.765-3.568-15.062-3.568c-7.297,0-12.737,2.5-15.061,3.568
		c-0.429,0.197-0.871,0.4-1.029,0.444c-0.317-0.035-0.771-0.587-0.771-1.263L265.289,36.131L265.289,36.131z M282.152,3.352
		c1.936,0,2.627,0.309,2.877,0.635c-1.006-0.094-1.973-0.141-2.877-0.141c-0.902,0-1.868,0.047-2.875,0.141
		C279.527,3.66,280.221,3.352,282.152,3.352z M258.721,34.765V25.33c0-6.961,2.729-12.306,8.113-15.889
		c1.137-0.756,2.395-1.42,3.73-1.988c-4.16,3.369-8.894,8.971-8.894,15.283v13.166c-0.097,0.035-0.19,0.07-0.28,0.104
		c-0.699,0.258-1.205,0.444-1.488,0.444C259.137,36.45,258.721,36.181,258.721,34.765z M301.895,53.786
		c-0.39,0-1.557-0.595-2.793-1.227c-3.574-1.825-9.56-4.88-16.949-4.88c-7.387,0-13.371,3.055-16.947,4.88
		c-1.234,0.632-2.402,1.227-2.79,1.227c-0.685,0-1.269-1.112-1.269-2.021V37.49c0.213-0.072,0.441-0.156,0.701-0.251
		c0.557-0.207,1.248-0.461,2.127-0.734v10.159c0,1.373,0.991,2.578,2.119,2.578c0.312,0,0.674-0.166,1.547-0.566
		c2.244-1.031,7.502-3.448,14.514-3.448s12.27,2.417,14.515,3.448c0.874,0.4,1.235,0.566,1.547,0.566
		c1.128,0,2.117-1.205,2.117-2.578V36.505c0.88,0.273,1.574,0.527,2.129,0.734c0.258,0.093,0.487,0.179,0.699,0.251v14.275
		C303.159,52.674,302.576,53.786,301.895,53.786z M305.586,34.765c0,1.409-0.434,1.686-1.184,1.686
		c-0.284,0-0.789-0.187-1.487-0.444c-0.091-0.033-0.185-0.068-0.281-0.104V22.736c0-6.312-4.733-11.915-8.895-15.283
		c1.338,0.567,2.595,1.232,3.733,1.988c5.383,3.583,8.111,8.928,8.111,15.889L305.586,34.765L305.586,34.765z"/>
	<path d="M44.486,93.279v-11.73l-6.19-6.039H18.662l-6.19,6.039v11.73H7.139v39.614h42.42V93.279H44.486z
		 M13.785,82.102l5.412-5.279h18.565l5.412,5.279v17.602h-4.488V81.31H18.272v18.394h-4.487V82.102z M37.373,93.279H19.585V82.623
		h17.787L37.373,93.279L37.373,93.279z M48.246,131.578H8.453V94.592h4.019v6.425h7.114v-6.425h17.787v6.425h7.114v-6.425h3.76
		L48.246,131.578L48.246,131.578z"/>
	<line fill="none" x1="38.033" y1="76.271" x2="38.033" y2="82.036"/>
	<rect x="37.377" y="76.271" width="1.313" height="5.765"/>
	<line fill="none" x1="18.933" y1="76.396" x2="18.933" y2="81.543"/>
	<rect x="18.276" y="76.396" width="1.314" height="5.147"/>
	<path d="M164.65,101.482H121.6c-2.5,0-4.532,2.036-4.533,4.537v0.955v10.246v13.328
		c0.001,2.494,2.033,4.525,4.529,4.525h43.054c2.499,0,4.532-2.035,4.533-4.536V117.22v-10.246v-0.965
		C169.181,103.514,167.149,101.482,164.65,101.482z M118.379,108.288h49.49v7.62h-49.49V108.288z M167.869,130.538
		c0,1.776-1.445,3.222-3.219,3.222h-43.052l-0.002,0.657v-0.657c-1.772,0-3.214-1.439-3.216-3.211v-13.328h49.49L167.869,130.538
		L167.869,130.538z M118.379,106.975v-0.955c0.001-1.777,1.445-3.223,3.22-3.223h43.054c1.772,0,3.214,1.441,3.216,3.213v0.965
		H118.379L118.379,106.975z"/>
	<path d="M121.429,125.482h14.762c0.363,0,0.656-0.296,0.656-0.657c0-0.363-0.293-0.657-0.656-0.657h-14.762
		c-0.363,0-0.658,0.294-0.658,0.657C120.771,125.187,121.066,125.482,121.429,125.482z"/>
	<path d="M121.429,128.47H132.5c0.363,0,0.657-0.294,0.657-0.657s-0.294-0.656-0.657-0.656h-11.071
		c-0.363,0-0.658,0.293-0.658,0.656S121.066,128.47,121.429,128.47z"/>
	<path d="M157.454,130.549h7.03c0.362,0,0.656-0.292,0.656-0.656v-7.029c0-0.361-0.294-0.656-0.656-0.656h-7.03
		c-0.362,0-0.657,0.295-0.657,0.656v7.029C156.797,130.257,157.092,130.549,157.454,130.549z M158.11,123.521h5.717v5.716h-5.717
		V123.521z"/>
	<path d="M363.229,98.914c-2.365,0-4.627,0.457-6.703,1.28l-7.026-16.079h10.367c2.851,0,4.127,1.389,4.127,2.768
		c0,0.824-0.504,1.652-1.284,2.106c-0.934,0.548-2.1,0.483-3.283-0.179c-0.314-0.18-0.716-0.064-0.895,0.25
		c-0.178,0.317-0.064,0.718,0.252,0.895c1.583,0.887,3.256,0.951,4.59,0.168c1.173-0.688,1.934-1.96,1.934-3.24
		c0-1.966-1.703-4.082-5.439-4.082h-11.371c-0.221,0-0.428,0.111-0.549,0.297c-0.122,0.187-0.143,0.42-0.053,0.624l1.678,3.839
		h-31.32l-0.861-2.758h4.977c0.361,0,0.656-0.295,0.656-0.657s-0.295-0.657-0.656-0.657h-8.326c-0.363,0-0.656,0.295-0.656,0.657
		s0.293,0.657,0.656,0.657h1.975l1.127,3.607v0.002l1.293,4.148l-5.856,8.977c-2.751-1.664-5.976-2.623-9.417-2.623
		c-10.066,0-18.256,8.188-18.256,18.256s8.188,18.256,18.256,18.256c8.816,0,16.195-6.283,17.891-14.608l5.391,0.898
		c0.102,0.431,0.363,0.798,0.722,1.033l-0.833,4.472h-0.727c-0.361,0-0.656,0.293-0.656,0.656c0,0.361,0.294,0.657,0.656,0.657
		h2.541c0.363,0,0.658-0.296,0.658-0.657c0-0.363-0.295-0.656-0.658-0.656h-0.479l0.788-4.23c0.769-0.164,1.345-0.847,1.345-1.663
		c0-0.288-0.076-0.554-0.201-0.79l22.472-27.269l3.255,7.448c-6.117,2.953-10.35,9.217-10.35,16.453
		c0,10.067,8.189,18.256,18.256,18.256c10.065,0,18.257-8.188,18.257-18.256S373.294,98.914,363.229,98.914z M303.158,134.113
		c-9.342,0-16.943-7.601-16.943-16.943c0-9.342,7.602-16.942,16.943-16.942c3.178,0,6.154,0.881,8.699,2.411l-9.25,14.173
		c-0.121,0.187-0.141,0.421-0.051,0.623c0.09,0.203,0.273,0.348,0.492,0.384l16.701,2.782
		C318.161,128.303,311.326,134.113,303.158,134.113z M319.961,119.306l-15.704-2.618l8.697-13.328
		c4.319,3.074,7.146,8.117,7.146,13.811C320.102,117.895,320.05,118.605,319.961,119.306z M313.673,102.259l5.269-8.071
		l8.061,25.842c-0.134,0.113-0.252,0.242-0.345,0.392l-5.397-0.899c0.102-0.771,0.157-1.555,0.157-2.352
		C321.415,111.017,318.352,105.569,313.673,102.259z M351.443,91.955l-22.239,26.988l0.678-3.636h0.728
		c0.361,0,0.654-0.296,0.654-0.659c0-0.361-0.293-0.656-0.654-0.656h-1.278c-0.003,0-0.007,0-0.011,0h-1.254
		c-0.362,0-0.657,0.295-0.657,0.656c0,0.363,0.294,0.659,0.657,0.659h0.479l-0.614,3.297l-9.271-29.729h31.484l1.332,3.049
		C351.466,91.935,351.455,91.943,351.443,91.955z M363.229,134.113c-9.343,0-16.941-7.601-16.941-16.943
		c0-6.697,3.906-12.5,9.562-15.25l6.778,15.515c0.108,0.246,0.349,0.393,0.603,0.393c0.088,0,0.178-0.018,0.263-0.055
		c0.332-0.146,0.483-0.532,0.339-0.864l-6.778-15.509c1.916-0.755,3.997-1.172,6.177-1.172c9.345,0,16.943,7.601,16.943,16.942
		C380.17,126.513,372.57,134.113,363.229,134.113z"/>
	<path d="M208.678,256.91c-0.41-0.411-0.955-0.639-1.535-0.639h-0.002h-1.675v-1.174
		c0-1.611-1.312-2.924-2.922-2.924h-5.207c-1.612,0-2.923,1.312-2.923,2.924v16.354v0.656v52.178v5.373
		c0,0.36,0.294,0.658,0.657,0.658h0.404c-0.542,0.608-0.895,1.508-0.895,2.818c0,4.436,4.572,14.046,4.77,14.451
		c0.002,0.008,0.008,0.015,0.012,0.021c0.021,0.041,0.048,0.077,0.076,0.114c0.008,0.008,0.018,0.021,0.023,0.026
		c0.038,0.04,0.079,0.075,0.124,0.104c0.009,0.004,0.017,0.011,0.024,0.016c0.041,0.021,0.082,0.04,0.125,0.057
		c0.014,0.005,0.025,0.009,0.041,0.011c0.054,0.018,0.107,0.024,0.166,0.024c0.058,0,0.111-0.009,0.166-0.024
		c0.014-0.002,0.024-0.006,0.039-0.011c0.045-0.017,0.086-0.034,0.125-0.057c0.008-0.005,0.018-0.011,0.024-0.016
		c0.046-0.028,0.086-0.063,0.123-0.104c0.008-0.008,0.017-0.021,0.022-0.026c0.029-0.037,0.056-0.073,0.076-0.114
		c0.004-0.007,0.01-0.014,0.015-0.021c0.194-0.405,4.769-10.017,4.769-14.451c0-1.312-0.354-2.21-0.896-2.818h0.404
		c0.363,0,0.656-0.298,0.656-0.658v-5.373v-52.178v-0.656v-13.865h1.676l0,0c0.229,0,0.444,0.089,0.606,0.25
		c0.163,0.165,0.253,0.381,0.253,0.611v18.894c0,0.362,0.294,0.657,0.657,0.657c0.362,0,0.657-0.295,0.657-0.657v-18.894
		C209.314,257.867,209.088,257.32,208.678,256.91z M195.727,255.098c0-0.886,0.724-1.605,1.61-1.605h5.208
		c0.887,0,1.607,0.722,1.607,1.605v15.696h-8.426V255.098L195.727,255.098z M204.152,329h-8.426v-4.059h8.426V329z M203.986,333.137
		c0,2.742-2.017,7.902-3.392,11.103v-6.765c0-0.362-0.294-0.657-0.655-0.657c-0.363,0-0.657,0.295-0.657,0.657v6.765
		c-1.375-3.198-3.392-8.358-3.392-11.103c0-2.397,1.305-2.819,4.047-2.819C202.682,330.316,203.986,330.736,203.986,333.137z
		 M204.152,323.629h-8.426v-51.521h8.426V323.629z"/>
	<path d="M118.976,195.697c-0.123-0.122-0.291-0.191-0.465-0.191c-0.174,0-0.341,0.069-0.464,0.191l-19.165,19.166
		v-27.006c0.003-0.021,0.003-0.047,0.003-0.068c0-0.361-0.297-0.656-0.66-0.656c-0.001,0-0.003,0-0.004,0c-0.002,0-0.006,0-0.009,0
		c-16.081,0.047-29.163,13.164-29.163,29.244c0,16.127,13.12,29.246,29.246,29.246h0.001c16.125,0,29.244-13.119,29.244-29.246
		C127.541,208.566,124.499,201.223,118.976,195.697z M98.296,244.311L98.296,244.311c-15.403,0-27.934-12.531-27.934-27.934
		c0-15.143,12.142-27.531,27.206-27.922v27.992c0,0.266,0.161,0.505,0.406,0.607c0.245,0.102,0.528,0.047,0.716-0.145l19.816-19.814
		c4.985,5.219,7.722,12.04,7.722,19.279C126.227,231.779,113.698,244.311,98.296,244.311z"/>
	<path d="M100.917,209.861c0.082,0.035,0.167,0.051,0.252,0.051c0.17,0,0.338-0.066,0.464-0.191l20.285-20.287
		c0.257-0.256,0.257-0.67,0-0.929c-5.522-5.522-12.866-8.563-20.679-8.563h-0.071c-0.173,0-0.341,0.07-0.463,0.191
		c-0.123,0.125-0.193,0.291-0.193,0.467l0.001,28.656C100.513,209.521,100.672,209.762,100.917,209.861z M120.521,188.977
		l-18.695,18.695V181.26C108.849,181.404,115.443,184.126,120.521,188.977z"/>
	<circle cx="117.657" cy="206.722" r="1.849"/>
	<circle cx="105.47" cy="224.458" r="1.847"/>
	<circle cx="106.52" cy="215.045" r="1.847"/>
	<circle cx="92.984" cy="239.44" r="1.847"/>
	<circle cx="80.967" cy="211.645" r="1.848"/>
	<circle cx="86.035" cy="202.119" r="1.846"/>
	<circle cx="90.089" cy="214.206" r="1.847"/>
	<circle cx="78.145" cy="203.966" r="1.847"/>
	<circle cx="92.464" cy="206.245" r="1.847"/>
	<circle cx="84.188" cy="221.807" r="1.847"/>
	<circle cx="121.351" cy="221.443" r="1.848"/>
	<circle cx="98.295" cy="233.028" r="1.847"/>
	<circle cx="104.674" cy="236.723" r="1.848"/>
	<circle cx="114.869" cy="227.346" r="1.846"/>
	<circle cx="114.869" cy="216.054" r="1.848"/>
	<circle cx="105.112" cy="189.135" r="1.847"/>
	<circle cx="105.112" cy="198.292" r="1.847"/>
	<circle cx="110.697" cy="193.542" r="1.847"/>
	<circle cx="110.697" cy="186.122" r="1.847"/>
	<circle cx="77.273" cy="218.74" r="1.847"/>
	<circle cx="94.311" cy="224.089" r="1.847"/>
	<circle cx="77.781" cy="228.153" r="1.849"/>
	<circle cx="86.035" cy="232.631" r="1.848"/>
	<circle cx="113.022" cy="234.025" r="1.848"/>
	<circle cx="91.681" cy="195.06" r="1.847"/>
	<path d="M232.738,16.469c1.679-1.693,1.68-4.458-0.004-6.168c-0.822-0.812-1.914-1.26-3.071-1.26
		c-1.159,0-2.248,0.448-3.069,1.266c-1.693,1.704-1.693,4.469,0.002,6.164c0.819,0.818,1.908,1.266,3.067,1.266
		C230.82,17.736,231.913,17.289,232.738,16.469z M227.521,11.234c0.569-0.565,1.332-0.879,2.141-0.879
		c0.811,0,1.574,0.313,2.143,0.874c1.174,1.194,1.176,3.129,0.006,4.31c-0.576,0.572-1.338,0.885-2.147,0.885
		s-1.569-0.312-2.142-0.883C226.339,14.357,226.339,12.424,227.521,11.234z"/>
	<path d="M241.729,38.654c-0.125-0.153-0.312-0.24-0.508-0.24h-9.731v-7.375c0.632,0.234,1.219,0.35,1.772,0.35l0,0
		c2.514,0,3.942-2.383,5.301-5.041l0.453-0.884l-0.992-0.069c-0.865-0.061-1.545-0.09-2.135-0.09c-1.689,0-3.318,0.212-4.402,1.312
		v-2.146c2.23-0.715,3.9-2.695,4.148-5.096c3.016-0.314,5.377-2.877,5.381-5.977c0.004-1.602-0.615-3.11-1.746-4.245
		c-0.987-0.991-2.262-1.595-3.635-1.735c-0.312-3.018-2.875-5.38-5.977-5.38c-3.1,0-5.656,2.362-5.971,5.38
		c-3.025,0.312-5.395,2.873-5.395,5.977c0.012,3.095,2.376,5.656,5.395,5.978c0.242,2.394,1.91,4.374,4.141,5.094v7.515
		c-1.075-1.125-2.705-1.34-4.398-1.34c-0.599,0-1.289,0.028-2.173,0.092l-0.987,0.072l0.451,0.883
		c1.36,2.659,2.788,5.044,5.295,5.044c0.565,0,1.166-0.122,1.812-0.366v2.049h-9.738c-0.197,0-0.383,0.087-0.508,0.24
		c-0.125,0.153-0.174,0.353-0.137,0.545l0.812,4.045c0.062,0.308,0.331,0.527,0.644,0.527h0.768
		c0.713,3.564,1.809,9.029,1.926,9.651c0.258,1.345,1.104,2.147,2.26,2.149h11.604c0.001,0,0.001,0,0.001,0
		c1.155-0.002,2-0.805,2.258-2.149c0.124-0.652,1.377-6.913,1.926-9.651h0.768c0.312,0,0.582-0.22,0.645-0.527l0.812-4.045
		C241.904,39.007,241.854,38.808,241.729,38.654z M235.889,26.617c0.312,0,0.651,0.01,1.035,0.026
		c-1.214,2.233-2.229,3.433-3.66,3.433c-0.505,0-1.062-0.139-1.707-0.423C231.84,27.367,232.953,26.617,235.889,26.617z
		 M226.016,35.418c-1.427,0-2.439-1.201-3.656-3.437c0.4-0.02,0.75-0.027,1.072-0.027c2.875,0,4.012,0.776,4.293,3.037
		C227.081,35.277,226.52,35.418,226.016,35.418z M224.971,18.753l0.002-0.659l-0.656-0.001c-2.588-0.007-4.699-2.118-4.709-4.702
		c0-2.586,2.11-4.691,4.707-4.691h0.656V8.043c0-2.588,2.104-4.691,4.688-4.691c2.589,0,4.694,2.104,4.694,4.691v0.656h0.656
		c1.258,0,2.441,0.491,3.329,1.381c0.884,0.888,1.368,2.064,1.364,3.314c-0.004,2.592-2.109,4.698-4.693,4.698h-0.656v0.657
		c0,2.589-2.104,4.695-4.694,4.695C227.066,23.438,224.963,21.332,224.971,18.753z M229.143,24.76h0.516h0.002h0.515v5.636
		l-0.003,0.04h0.003v7.979h-1.03V24.76H229.143z M236.428,53.176c-0.207,1.081-0.779,1.081-0.969,1.081h-11.605
		c-0.188,0-0.762,0-0.969-1.081c-0.115-0.609-1.162-5.84-1.877-9.404h17.297C237.512,47.732,236.542,52.584,236.428,53.176z
		 M239.873,42.459h-0.766h-18.9h-0.766l-0.547-2.732h21.525L239.873,42.459z"/>
	<path d="M385.82,157.131c-1.959-4.586-6.447-7.551-11.438-7.551c-1.677,0-3.316,0.338-4.873,1.001
		c-3.052,1.304-5.416,3.718-6.65,6.796c-0.52,1.291-0.811,2.631-0.883,3.977h-7.986l-0.594-8.532
		c-0.017-0.226-0.146-0.427-0.347-0.532l-12.532-6.699c-0.319-0.172-0.718-0.051-0.89,0.269c-0.171,0.318-0.05,0.718,0.271,0.888
		l12.211,6.529l0.562,8.078h-7.895v64.603c0,2.278,1.855,4.133,4.137,4.134h22.003c1.104-0.001,2.142-0.432,2.92-1.213
		c0.78-0.779,1.209-1.816,1.207-2.921v-51.534c1.451-0.074,2.869-0.402,4.224-0.982c3.053-1.303,5.416-3.717,6.651-6.797
		C387.159,163.562,387.123,160.184,385.82,157.131z M373.732,162.667v36.97H356.65l-2.57-36.97H373.732z M352.766,162.667
		l2.569,36.97h-9.242v-36.97H352.766z M372.91,227.95c-0.531,0.532-1.239,0.825-1.992,0.825h-22.001
		c-1.558,0-2.824-1.268-2.824-2.819V200.95h9.941c0.001,0,0.001,0.001,0.003,0.001s0.006-0.001,0.009-0.001h17.687v25.006
		C373.734,226.711,373.441,227.418,372.91,227.95z M384.704,166.152c-1.106,2.756-3.22,4.914-5.95,6.079
		c-1.188,0.508-2.434,0.8-3.707,0.874v-9.527l4.732,4.653c0.128,0.127,0.294,0.188,0.461,0.188c0.169,0,0.339-0.064,0.468-0.196
		c0.254-0.257,0.251-0.675-0.009-0.929l-4.717-4.64l6.617-0.056c0.362-0.002,0.653-0.299,0.65-0.662
		c-0.002-0.361-0.296-0.651-0.657-0.651c-0.001,0-0.003,0-0.005,0l-6.62,0.055l4.644-4.721c0.254-0.259,0.25-0.673-0.01-0.928
		c-0.26-0.254-0.675-0.251-0.929,0.007l-4.641,4.72l-0.056-6.616c-0.004-0.361-0.298-0.652-0.656-0.652c-0.002,0-0.004,0-0.008,0
		c-0.36,0.002-0.652,0.299-0.648,0.662l0.055,6.619l-4.72-4.643c-0.258-0.254-0.674-0.252-0.929,0.008
		c-0.254,0.26-0.252,0.674,0.008,0.93l4.706,4.627h-9.491c0.07-1.182,0.329-2.355,0.783-3.484c1.104-2.756,3.219-4.916,5.949-6.08
		c1.392-0.594,2.856-0.896,4.355-0.896c4.462,0,8.479,2.651,10.229,6.754C385.777,160.377,385.811,163.398,384.704,166.152z"/>
	<path d="M348.105,212.062c0.168,0,0.336-0.062,0.465-0.191l8.486-8.488c0.26-0.256,0.26-0.672,0-0.928
		c-0.255-0.256-0.671-0.256-0.928,0l-8.488,8.488c-0.257,0.256-0.257,0.672,0,0.928C347.77,212,347.938,212.062,348.105,212.062z"/>
	<path d="M348.236,218.027c0.168,0,0.336-0.064,0.464-0.195l14.334-14.332c0.256-0.257,0.256-0.673,0-0.928
		c-0.257-0.258-0.673-0.258-0.929,0l-14.334,14.332c-0.258,0.257-0.258,0.674,0,0.928
		C347.898,217.963,348.066,218.027,348.236,218.027z"/>
	<path d="M348.236,205.809c0.168,0,0.336-0.062,0.464-0.191l1.784-1.785c0.258-0.256,0.258-0.67,0-0.93
		c-0.258-0.256-0.672-0.256-0.93,0l-1.783,1.783c-0.258,0.256-0.258,0.674,0,0.932C347.898,205.744,348.066,205.809,348.236,205.809
		z"/>
	<path d="M368.91,202.785c-0.256-0.258-0.672-0.258-0.928,0l-20.145,20.145c-0.256,0.254-0.256,0.67,0,0.928
		c0.128,0.129,0.296,0.192,0.465,0.192c0.167,0,0.335-0.063,0.463-0.192l20.145-20.145
		C369.167,203.457,369.167,203.041,368.91,202.785z"/>
	<path d="M371.834,205.953c-0.257-0.256-0.673-0.256-0.929,0l-20.241,20.24c-0.256,0.256-0.256,0.67,0,0.929
		c0.128,0.127,0.297,0.19,0.465,0.19c0.167,0,0.335-0.063,0.464-0.19l20.241-20.241C372.09,206.623,372.09,206.209,371.834,205.953z
		"/>
	<path d="M371.834,212.043c-0.257-0.257-0.673-0.257-0.929,0l-14.152,14.154c-0.257,0.256-0.257,0.67,0,0.927
		c0.127,0.129,0.295,0.192,0.464,0.192c0.168,0,0.335-0.063,0.463-0.192l14.153-14.151
		C372.09,212.717,372.09,212.301,371.834,212.043z"/>
	<path d="M371.886,218.082c-0.256-0.258-0.672-0.258-0.929,0l-8.007,8.007c-0.257,0.257-0.257,0.673,0,0.931
		c0.128,0.127,0.295,0.189,0.463,0.189s0.336-0.062,0.465-0.189l8.007-8.01C372.143,218.752,372.143,218.338,371.886,218.082z"/>
	<path d="M370.958,224.174l-2.022,2.023c-0.256,0.255-0.256,0.67,0,0.927c0.129,0.129,0.297,0.192,0.467,0.192
		c0.168,0,0.334-0.063,0.464-0.192l2.021-2.021c0.258-0.258,0.258-0.672,0-0.932C371.63,223.918,371.214,223.918,370.958,224.174z"
		/>
	<path d="M196.49,5.631h-36.773c-2.517,0-4.564,2.049-4.564,4.567v24.93c0.001,2.513,2.046,4.559,4.561,4.559h13.246
		l-2.29,5.292h-7.822c-0.363,0-0.657,0.293-0.657,0.656c0,0.361,0.294,0.656,0.657,0.656h8.252h14.007c0.002,0,0.004,0,0.006,0
		h8.246c0.362,0,0.657-0.295,0.657-0.656c0-0.363-0.294-0.656-0.657-0.656h-7.821l-2.29-5.292h13.242
		c2.517,0,4.564-2.049,4.564-4.567V10.188C201.053,7.675,199.007,5.631,196.49,5.631z M196.494,6.943
		c1.789,0,3.246,1.455,3.247,3.245v21.708h-43.275V27.49l20.545-20.547H196.494z M170.757,6.943l-14.292,14.294v-3.331
		l10.963-10.963H170.757z M175.154,6.943l-18.688,18.689v-2.541l16.149-16.148H175.154z M159.716,6.943h5.855l-9.105,9.105v-5.851
		C156.466,8.403,157.924,6.943,159.716,6.943z M184.106,44.979H172.1l2.29-5.292h7.426L184.106,44.979z M196.49,38.373h-14.242
		h-8.289h-14.243l-0.003,0.656v-0.656c-1.79,0-3.247-1.455-3.247-3.245v-1.917h43.275v1.908
		C199.741,36.914,198.282,38.373,196.49,38.373z"/>
	<path d="M167.86,272.812l2.484-3.354c0.003-0.005,0.004-0.009,0.008-0.015c0.011-0.016,0.019-0.029,0.029-0.047
		c0.012-0.02,0.023-0.041,0.032-0.061c0.007-0.016,0.013-0.031,0.019-0.049c0.008-0.021,0.015-0.046,0.021-0.068
		c0.004-0.016,0.007-0.033,0.009-0.05c0.004-0.026,0.007-0.05,0.008-0.077c0.001-0.008,0.003-0.018,0.003-0.027
		c0-0.006-0.002-0.012-0.002-0.02c-0.001-0.027-0.004-0.053-0.008-0.08c-0.002-0.015-0.003-0.029-0.006-0.045
		c-0.007-0.027-0.015-0.052-0.024-0.076c-0.005-0.014-0.008-0.027-0.013-0.039c-0.015-0.033-0.033-0.064-0.053-0.1
		c-0.002-0.002-0.003-0.006-0.005-0.006c-0.022-0.035-0.047-0.064-0.076-0.096l-0.004-0.002l0,0l-2.345-2.39
		c-0.124-0.127-0.292-0.194-0.469-0.194H161.5c-0.175,0-0.345,0.067-0.468,0.194l-2.346,2.39l0,0l-0.003,0.002
		c-0.028,0.028-0.053,0.061-0.076,0.096c-0.001,0-0.003,0.004-0.004,0.006c-0.021,0.033-0.039,0.064-0.053,0.1
		c-0.005,0.012-0.009,0.025-0.014,0.039c-0.009,0.024-0.018,0.049-0.023,0.076c-0.003,0.016-0.005,0.03-0.008,0.045
		c-0.003,0.027-0.007,0.053-0.007,0.08c0,0.008-0.002,0.014-0.002,0.02c0,0.012,0.003,0.021,0.003,0.027
		c0.001,0.027,0.004,0.051,0.008,0.077c0.002,0.017,0.005,0.034,0.009,0.05c0.006,0.022,0.014,0.047,0.021,0.068
		c0.006,0.018,0.012,0.033,0.019,0.049c0.009,0.02,0.021,0.041,0.034,0.061c0.009,0.018,0.018,0.031,0.028,0.047
		c0.003,0.006,0.005,0.01,0.008,0.015l2.484,3.354c-3.411,1.35-5.831,4.676-5.831,8.562c0,5.076,4.13,9.206,9.207,9.206
		c5.076,0,9.206-4.13,9.206-9.206C173.69,277.488,171.271,274.162,167.86,272.812z M161.776,267.334h5.416l1.059,1.077h-7.533
		L161.776,267.334z M160.456,269.725h8.057l-1.982,2.676c-0.658-0.148-1.342-0.23-2.045-0.23c-0.704,0-1.388,0.082-2.047,0.23
		L160.456,269.725z M164.484,289.268c-4.353,0-7.894-3.541-7.894-7.894s3.542-7.894,7.894-7.894s7.893,3.541,7.893,7.894
		S168.836,289.268,164.484,289.268z"/>
	<path d="M64.747,50.174c-9.531-0.572-19.7-5.447-23.657-9.635C37.002,36.211,14.324,3.74,14.096,3.412
		c-0.114-0.161-0.294-0.262-0.492-0.278c-0.198-0.008-0.391,0.062-0.526,0.207c-0.28,0.298-6.872,7.431-6.872,15.798
		c0,1.639,0.509,3.353,1.336,5.098V60.76c0,0.363,0.294,0.657,0.657,0.657h3.595c0.362,0,0.657-0.294,0.657-0.657V31.678
		c0.809,1.028,1.636,2.041,2.441,3.025c0.419,0.512,0.833,1.02,1.234,1.516c0.493,0.609,1.085,1.355,1.758,2.201
		c6.391,8.037,18.287,22.997,24.357,22.997H73.89c1.641,0,2.827,0,2.827-2.077C76.717,55.406,75.356,50.81,64.747,50.174z
		 M11.137,60.104H8.856V26.635c0.683,1.112,1.458,2.229,2.281,3.333V60.104z M75.305,60.005c-0.183,0.099-0.753,0.099-1.415,0.099
		H42.242c-5.438,0-17.975-15.77-23.33-22.502c-0.675-0.85-1.269-1.596-1.764-2.209c-0.403-0.499-0.819-1.007-1.239-1.521
		c-3.933-4.808-8.39-10.259-8.39-14.732c0-6.492,4.424-12.403,5.982-14.281c3.41,4.878,22.765,32.488,26.632,36.582
		c4.129,4.371,14.682,9.454,24.534,10.044C75.404,52.127,75.404,57,75.404,59.34C75.404,59.943,75.309,60.003,75.305,60.005z"/>
	<path d="M99.828,112.097l2.636-2.671c0.146-0.149,0.213-0.358,0.181-0.565c-0.033-0.204-0.162-0.384-0.347-0.48
		l-3.333-1.728l1.682-3.354c0.093-0.187,0.092-0.406-0.002-0.594c-0.094-0.186-0.271-0.316-0.478-0.35l-3.703-0.611l0.562-3.711
		c0.031-0.206-0.037-0.415-0.186-0.562c-0.147-0.146-0.357-0.215-0.562-0.187l-3.712,0.563l-0.611-3.703
		c-0.035-0.206-0.164-0.385-0.35-0.479c-0.186-0.096-0.407-0.096-0.593-0.002l-3.356,1.682l-1.726-3.334
		c-0.096-0.185-0.275-0.312-0.48-0.346c-0.207-0.033-0.416,0.034-0.563,0.182l-2.673,2.636l-2.672-2.636
		c-0.149-0.147-0.358-0.215-0.564-0.182c-0.206,0.032-0.384,0.161-0.48,0.346l-1.727,3.334l-3.355-1.682
		c-0.187-0.094-0.407-0.094-0.593,0.002c-0.186,0.094-0.314,0.272-0.35,0.479l-0.611,3.703l-3.711-0.563
		c-0.206-0.028-0.415,0.04-0.563,0.187c-0.147,0.147-0.216,0.356-0.185,0.562l0.562,3.711l-3.704,0.611
		c-0.206,0.033-0.383,0.164-0.478,0.35c-0.095,0.188-0.096,0.407-0.003,0.594l1.682,3.354l-3.333,1.728
		c-0.186,0.097-0.313,0.276-0.347,0.48c-0.032,0.207,0.034,0.416,0.182,0.565l2.636,2.671l-2.636,2.674
		c-0.147,0.147-0.214,0.358-0.182,0.563c0.033,0.206,0.161,0.383,0.347,0.479l3.333,1.728l-1.682,3.355
		c-0.093,0.186-0.092,0.406,0.003,0.593c0.095,0.187,0.272,0.315,0.478,0.349l3.704,0.613l-0.562,3.711
		c-0.031,0.206,0.038,0.416,0.185,0.562c0.148,0.147,0.356,0.215,0.563,0.185l3.711-0.562l0.611,3.703
		c0.035,0.206,0.164,0.383,0.35,0.477c0.186,0.096,0.406,0.096,0.593,0.004l3.355-1.683l1.727,3.333
		c0.096,0.187,0.274,0.313,0.48,0.346c0.206,0.035,0.416-0.034,0.564-0.179l2.672-2.638l2.673,2.638
		c0.124,0.12,0.29,0.188,0.461,0.188c0.034,0,0.068-0.002,0.102-0.01c0.206-0.032,0.384-0.159,0.48-0.346l1.726-3.333l3.356,1.683
		c0.187,0.095,0.407,0.092,0.593-0.004c0.186-0.094,0.315-0.271,0.35-0.477l0.611-3.703l3.712,0.562
		c0.206,0.03,0.415-0.037,0.562-0.185c0.148-0.146,0.217-0.356,0.186-0.562l-0.562-3.711l3.703-0.613
		c0.206-0.033,0.383-0.162,0.478-0.349s0.096-0.407,0.002-0.593l-1.682-3.355l3.333-1.728c0.186-0.097,0.314-0.273,0.347-0.479
		c0.032-0.205-0.035-0.416-0.181-0.563L99.828,112.097z M97.786,116.672c-0.319,0.166-0.446,0.556-0.285,0.877l1.573,3.139
		l-3.463,0.572c-0.355,0.059-0.596,0.392-0.542,0.747l0.526,3.471l-3.471-0.525c-0.354-0.058-0.688,0.187-0.747,0.542l-0.572,3.463
		l-3.138-1.572c-0.322-0.16-0.712-0.033-0.877,0.286l-1.614,3.114l-2.499-2.465c-0.129-0.125-0.294-0.188-0.461-0.188
		s-0.334,0.062-0.461,0.188l-2.499,2.465l-1.614-3.114c-0.166-0.319-0.557-0.448-0.878-0.286l-3.139,1.572l-0.572-3.463
		c-0.059-0.355-0.391-0.6-0.747-0.542l-3.47,0.525l0.526-3.471c0.054-0.355-0.188-0.688-0.542-0.747l-3.464-0.572l1.573-3.139
		c0.161-0.321,0.034-0.711-0.285-0.877l-3.117-1.613l2.466-2.5c0.252-0.256,0.252-0.668,0-0.923l-2.466-2.499l3.117-1.613
		c0.319-0.166,0.446-0.557,0.285-0.877l-1.573-3.139l3.464-0.574c0.354-0.059,0.596-0.391,0.542-0.745l-0.526-3.47l3.47,0.524
		c0.355,0.054,0.688-0.188,0.747-0.542l0.572-3.463l3.139,1.57c0.321,0.162,0.712,0.035,0.878-0.283l1.614-3.117l2.499,2.465
		c0.256,0.252,0.667,0.252,0.923,0l2.499-2.465l1.614,3.117c0.166,0.318,0.556,0.445,0.877,0.283l3.138-1.57l0.572,3.463
		c0.059,0.354,0.393,0.596,0.747,0.542l3.471-0.524l-0.526,3.47c-0.054,0.354,0.187,0.687,0.542,0.745l3.463,0.574l-1.573,3.139
		c-0.161,0.32-0.034,0.711,0.285,0.877l3.118,1.613l-2.466,2.499c-0.252,0.255-0.252,0.667,0,0.923l2.466,2.5L97.786,116.672z"/>
	<path d="M90.03,103.352l-16.561,16.564c-0.257,0.254-0.257,0.67,0,0.926c0.128,0.129,0.296,0.194,0.464,0.194
		s0.336-0.065,0.465-0.194l16.561-16.562c0.257-0.257,0.257-0.671,0-0.929C90.703,103.095,90.287,103.095,90.03,103.352z"/>
	<path d="M78.216,110.521c2.335,0,4.235-1.898,4.235-4.234s-1.9-4.235-4.235-4.235s-4.235,1.899-4.235,4.235
		S75.88,110.521,78.216,110.521z M78.216,103.365c1.611,0,2.922,1.311,2.922,2.922c0,1.611-1.311,2.922-2.922,2.922
		c-1.611,0-2.922-1.311-2.922-2.922C75.294,104.676,76.605,103.365,78.216,103.365z"/>
	<path d="M86.213,113.673c-2.335,0-4.235,1.899-4.235,4.235s1.9,4.234,4.235,4.234s4.235-1.898,4.235-4.234
		S88.548,113.673,86.213,113.673z M86.213,120.83c-1.611,0-2.922-1.311-2.922-2.922c0-1.611,1.311-2.921,2.922-2.921
		c1.611,0,2.922,1.31,2.922,2.921C89.135,119.519,87.824,120.83,86.213,120.83z"/>
	<path d="M333.375,207.977c0-1.177-0.958-2.135-2.136-2.135h-15.126c0.152-0.104,0.305-0.209,0.453-0.324
		c2.375-1.817,3.406-4.326,2.35-5.709c-0.428-0.561-1.122-0.855-2.003-0.855c-1.258,0-2.761,0.598-4.12,1.639
		c-0.893,0.688-1.625,1.493-2.115,2.32c-0.488-0.827-1.223-1.637-2.115-2.32c-1.359-1.041-2.86-1.639-4.119-1.639
		c-0.881,0-1.573,0.297-2.004,0.857c-1.058,1.381-0.025,3.89,2.351,5.707c0.147,0.115,0.301,0.222,0.454,0.324h-15.126
		c-1.181,0-2.138,0.961-2.138,2.139v6.117h1.873v19.521c0,0.571,0.225,1.104,0.627,1.511c0.402,0.401,0.938,0.626,1.508,0.626
		c0.001,0,0.002,0,0.003,0h14.638h8.1h14.639c1.178,0,2.137-0.961,2.137-2.139v-19.521h1.873v-6.119H333.375z M314.029,207.156
		v5.625h-6.706v-5.625H314.029z M311.596,203.967c0.372-0.796,1.1-1.646,1.995-2.335c1.118-0.856,2.36-1.366,3.321-1.366
		c0.318,0,0.744,0.062,0.961,0.342c0.514,0.67-0.277,2.469-2.105,3.867c-1.117,0.856-2.357,1.367-3.318,1.367
		c-0.319,0-0.745-0.06-0.961-0.342C311.248,205.189,311.289,204.631,311.596,203.967z M303.48,200.607
		c0.217-0.282,0.643-0.342,0.961-0.342c0.961,0,2.201,0.51,3.318,1.364c0.896,0.688,1.623,1.539,1.995,2.335
		c0.31,0.664,0.349,1.225,0.11,1.533c-0.217,0.282-0.643,0.342-0.961,0.342c-0.961,0-2.202-0.511-3.32-1.365
		C303.759,203.074,302.967,201.277,303.48,200.607z M289.292,207.98c0-0.457,0.369-0.824,0.823-0.824h15.895v5.625l-16.718,0.004
		V207.98z M291.988,234.438C291.988,234.438,291.986,234.438,291.988,234.438c-0.221,0-0.426-0.084-0.581-0.236
		c-0.157-0.156-0.242-0.363-0.242-0.583v-19.521l15.462-0.002v20.342H291.988z M307.941,234.438v-20.342h5.472v20.342H307.941z
		 M330.188,233.613c0,0.453-0.367,0.824-0.822,0.824h-14.639v-20.345h15.461V233.613z M332.062,212.781h-16.721v-5.625h15.897
		c0.452,0,0.819,0.367,0.819,0.818v4.807H332.062z"/>
	<path d="M269.062,151.021c-12.017-7.461-11.021-13.965-10.058-20.254c0.236-1.546,0.458-3.013,0.493-4.48
		c4.357-2.451,7.312-7.119,7.312-12.468c0-6.212-3.98-11.506-9.523-13.478c-0.253-19.055-15.83-34.479-34.945-34.479
		c-19.113,0-34.692,15.425-34.945,34.479c-5.543,1.972-9.524,7.266-9.524,13.478c0,7.663,6.061,13.938,13.642,14.282v0.114
		c0,1.255,1.021,2.274,2.274,2.274h2.232c1.254,0,2.272-1.021,2.273-2.274V99.423c-0.001-1.255-1.021-2.275-2.273-2.275h-2.232
		c-1.253,0-2.274,1.021-2.274,2.278v0.111c-0.96,0.045-1.896,0.184-2.799,0.408c0.462-18.147,15.369-32.77,33.626-32.77
		c18.258,0,33.165,14.622,33.627,32.77c-0.904-0.225-1.839-0.363-2.8-0.408v-0.114c0-1.255-1.021-2.275-2.274-2.275h-2.23
		c-1.254,0-2.273,1.021-2.273,2.278v28.79c0,1.255,1.021,2.274,2.273,2.274h2.23c1.254,0,2.274-1.02,2.274-2.274v-0.114
		c1.765-0.08,3.446-0.482,4.987-1.146c-0.075,1.166-0.258,2.363-0.448,3.613c-0.979,6.398-2.09,13.648,10.662,21.568
		c6.938,4.312,10.339,11.636,8.459,18.229c-1.877,6.581-8.332,10.571-17.323,10.757v-0.155c0-0.362-0.294-0.657-0.656-0.657h-10.492
		c-0.305,0-0.561,0.211-0.633,0.494h-7.738c-0.059,0-0.113,0.014-0.164,0.045l-1.139,0.654c-0.102,0.061-0.164,0.166-0.164,0.286
		c0,0.116,0.062,0.224,0.164,0.283l1.139,0.655c0.051,0.027,0.105,0.045,0.164,0.045h7.738c0.073,0.281,0.328,0.492,0.633,0.492
		h10.492c0.362,0,0.656-0.293,0.656-0.658v-0.172c9.614-0.188,16.539-4.535,18.585-11.71
		C280.135,163.562,276.507,155.645,269.062,151.021z M193.789,98.461h2.232c0.529,0,0.961,0.432,0.961,0.965v28.788
		c0,0.529-0.432,0.963-0.961,0.963h-2.232c-0.53,0-0.961-0.434-0.961-0.961v-0.745v-0.008v-27.286v-0.01v-0.741
		C192.828,98.893,193.259,98.461,193.789,98.461z M191.515,126.789c-6.856-0.344-12.328-6.031-12.328-12.97
		c0-6.94,5.472-12.627,12.328-12.97V126.789z M250.895,129.177h-2.23c-0.53,0-0.961-0.434-0.961-0.961v-28.79
		c0-0.533,0.431-0.965,0.961-0.965h2.23c0.53,0,0.961,0.432,0.961,0.965v0.741v0.01v27.286v0.008v0.743
		C251.855,128.743,251.424,129.177,250.895,129.177z M253.169,100.85c6.856,0.343,12.328,6.029,12.328,12.97
		c0,6.938-5.472,12.626-12.328,12.97V100.85z"/>
	<path d="M288.122,292.262H222.6c-0.36,0-0.656,0.293-0.656,0.656v52.059c0,0.364,0.293,0.657,0.656,0.657h65.522
		c0.362,0,0.657-0.293,0.657-0.657v-52.059C288.777,292.555,288.484,292.262,288.122,292.262z M251.796,293.575h7.129v9.096
		l-2.059,0.978l-2.573-1.769c-0.111-0.077-0.24-0.116-0.372-0.116c-0.092,0-0.185,0.021-0.271,0.061l-1.854,0.839V293.575
		L251.796,293.575z M287.465,344.32h-64.209v-50.745h27.227v10.104c0,0.223,0.113,0.43,0.303,0.551
		c0.188,0.123,0.424,0.141,0.626,0.049l2.442-1.107l2.58,1.771c0.111,0.078,0.24,0.115,0.371,0.115c0.096,0,0.192-0.021,0.281-0.062
		l2.777-1.316c0.229-0.105,0.375-0.34,0.375-0.592v-9.513h27.226L287.465,344.32L287.465,344.32z"/>
	<path d="M238.15,333.529h-10c-0.362,0-0.657,0.295-0.657,0.657v5.555c0,0.361,0.295,0.657,0.657,0.657h10
		c0.36,0,0.656-0.296,0.656-0.657v-5.555C238.807,333.824,238.512,333.529,238.15,333.529z"/>
	<path d="M273.958,335.049c0.103,0.244,0.341,0.406,0.606,0.406h1.68v4.286c0,0.362,0.293,0.657,0.656,0.657h2.555
		c0.363,0,0.656-0.295,0.656-0.657v-4.286h1.68c0.002,0,0.005,0,0.007,0c0.363,0,0.657-0.294,0.657-0.656
		c0-0.21-0.1-0.396-0.251-0.518l-3.562-3.562c-0.123-0.123-0.291-0.19-0.466-0.19s-0.341,0.067-0.464,0.19l-3.613,3.612
		C273.912,334.521,273.855,334.803,273.958,335.049z"/>
	<path d="M165.716,301.562h-16.669c-0.374-0.619-1.192-1.979-2.287-3.789h0.541h0.003
		c1.091,0,1.979-0.887,1.979-1.979v-1.972c0-1.094-0.889-1.981-1.981-1.981h-4.123c-0.156-0.259-0.313-0.52-0.473-0.78h0.391h0.001
		c1.091,0,1.979-0.89,1.979-1.979v-1.973c0-1.092-0.889-1.98-1.98-1.98h-3.978c-0.158-0.262-0.316-0.521-0.473-0.779h0.246h0.001
		c1.092,0,1.979-0.891,1.98-1.979v-1.972c0-1.094-0.888-1.981-1.98-1.981h-3.841c-2.313-3.813-4.1-6.735-4.513-7.374
		c-1.563-2.4-4.06-1.887-4.165-1.861c-0.175,0.039-0.327,0.146-0.42,0.299c-0.094,0.152-0.12,0.339-0.074,0.512l8.385,31.574h-22.13
		c-0.957-1.178-5.012-6.157-6.45-7.782c-1.074-1.213-2.403-1.468-3.331-1.468c-0.72,0-1.229,0.152-1.286,0.171
		c-0.177,0.055-0.323,0.184-0.401,0.351c-0.078,0.172-0.081,0.364-0.008,0.534l5.411,12.662l-5.411,12.664
		c-0.072,0.172-0.07,0.365,0.008,0.535c0.078,0.168,0.224,0.295,0.401,0.352c0.056,0.019,0.565,0.169,1.285,0.169
		c0.926,0,2.257-0.255,3.332-1.468c1.438-1.625,5.493-6.605,6.45-7.781h22.13l-8.385,31.574c-0.046,0.172-0.02,0.357,0.074,0.511
		c0.093,0.151,0.245,0.262,0.419,0.298c0.033,0.009,0.296,0.062,0.691,0.062c0.876,0,2.396-0.271,3.474-1.924
		c0.413-0.638,2.199-3.562,4.513-7.375h3.841c1.092,0,1.98-0.89,1.98-1.98v-1.975c-0.001-1.09-0.888-1.978-1.98-1.978h-0.247
		c0.157-0.261,0.315-0.521,0.473-0.78h3.978c1.091,0,1.98-0.891,1.98-1.981v-1.972c0-1.092-0.889-1.979-1.98-1.979h-0.391
		c0.158-0.264,0.316-0.521,0.472-0.781h4.123c1.092,0,1.981-0.891,1.981-1.981v-1.972c0-1.09-0.888-1.979-1.981-1.979h-0.542
		c1.095-1.812,1.914-3.171,2.288-3.789h16.669c2.455,0,4.451-2.006,4.451-4.471C170.167,303.564,168.171,301.562,165.716,301.562z
		 M147.301,293.154c0.368,0,0.667,0.301,0.667,0.669v1.972c0,0.367-0.298,0.665-0.665,0.665h-1.337
		c-0.611-1.015-1.284-2.128-1.995-3.306H147.301z M143.097,286.441c0.367,0,0.667,0.3,0.667,0.668v1.972
		c0,0.368-0.299,0.665-0.666,0.665h-1.186c-0.657-1.085-1.327-2.196-1.998-3.305H143.097z M138.893,279.729
		c0.368,0,0.667,0.299,0.667,0.668v1.973c0,0.365-0.299,0.666-0.666,0.666h-1.042c-0.688-1.139-1.36-2.246-2.002-3.307H138.893
		L138.893,279.729z M127.359,270.441c0.594,0.062,1.444,0.34,2.078,1.312c1.219,1.874,14.989,24.689,18.075,29.809h-11.888
		L127.359,270.441z M138.893,329.027c0.367,0,0.666,0.299,0.666,0.666v1.973c0,0.367-0.299,0.668-0.667,0.668h-3.044
		c0.643-1.061,1.315-2.169,2.002-3.307H138.893L138.893,329.027z M143.097,322.314c0.367,0,0.666,0.299,0.667,0.666v1.972
		c0,0.368-0.299,0.667-0.667,0.667h-3.183c0.671-1.108,1.341-2.219,1.998-3.305H143.097L143.097,322.314z M147.303,315.602
		c0.367,0,0.665,0.3,0.665,0.666v1.972c0,0.367-0.299,0.669-0.667,0.669h-3.33c0.711-1.18,1.384-2.292,1.995-3.307H147.303
		L147.303,315.602z M129.437,340.305c-0.635,0.978-1.485,1.252-2.078,1.314l8.265-31.119h11.888
		C144.427,315.613,130.656,338.432,129.437,340.305z M165.716,309.188h-53.894c-0.198,0-0.385,0.089-0.51,0.24
		c-0.05,0.062-5.029,6.195-6.611,7.982c-0.602,0.681-1.392,1.024-2.348,1.024c-0.053,0-0.104-0.002-0.154-0.004l5.189-12.145
		c0.07-0.164,0.07-0.353,0-0.517l-5.188-12.14c0.05-0.003,0.101-0.005,0.154-0.005c0.956,0,1.746,0.346,2.347,1.025
		c1.583,1.787,6.561,7.92,6.611,7.98c0.125,0.154,0.312,0.242,0.51,0.242h53.894c1.73,0,3.138,1.417,3.138,3.153
		C168.854,307.77,167.446,309.188,165.716,309.188z"/>
	<polygon points="351.679,18.028 349.821,18.028 348.508,19.342 350.366,19.342 	"/>
	<polygon points="340.709,18.028 339.395,19.342 341.252,19.342 342.566,18.028 	"/>
	<polygon points="359.457,18.028 360.771,19.342 362.627,19.342 361.314,18.028 	"/>
	<polygon points="356.792,19.342 358.105,18.028 356.248,18.028 354.936,19.342 	"/>
	<path d="M363.023,20.008c0-0.174-0.069-0.34-0.192-0.463l-3.585-3.586c-0.257-0.256-0.673-0.256-0.93,0
		l-3.586,3.586c-0.256,0.256-0.256,0.67,0,0.928l3.586,3.586c0.129,0.127,0.296,0.193,0.465,0.193c0.168,0,0.336-0.066,0.465-0.193
		l3.585-3.586C362.955,20.351,363.023,20.182,363.023,20.008z M358.781,22.666l-2.657-2.658l2.657-2.656l2.656,2.656L358.781,22.666
		z"/>
	<path d="M377.391,36.806v-8.702c0-2.094-1.703-3.797-3.797-3.797h-0.176v-2.482c0-2.094-1.704-3.796-3.797-3.796
		h-4.204c-0.062-0.075-0.126-0.147-0.194-0.217L352.711,5.301c-0.652-0.651-1.52-1.01-2.438-1.01c-0.924,0-1.789,0.359-2.441,1.014
		l-12.725,12.724h-9.976c-2.093,0-3.796,1.702-3.796,3.796v36.142c0,2.094,1.703,3.797,3.796,3.797h48.462
		c2.094,0,3.797-1.703,3.797-3.797v-11.07h-1.312v11.07c0,1.369-1.115,2.483-2.483,2.483h-48.462c-1.367,0-2.482-1.114-2.482-2.483
		V24.693c0.668,0.578,1.533,0.928,2.482,0.928h48.462c1.369,0,2.483,1.113,2.483,2.482v8.702L377.391,36.806L377.391,36.806z
		 M372.104,24.307h-46.973c-1.367,0-2.482-1.113-2.482-2.482c0-1.369,1.115-2.482,2.482-2.482h8.661l-4.96,4.96h0.928h0.93
		l4.961-4.96l0.389-0.389L348.76,6.23c0.404-0.403,0.941-0.627,1.514-0.627c0.57,0,1.105,0.222,1.511,0.624l0.362,0.364
		l-17.711,17.71h1.857l16.781-16.78l3.627,3.627l-13.153,13.153h1.858l12.225-12.226l5.95,5.952l0.712,0.712
		c0.086,0.084,0.162,0.179,0.229,0.273c0.004,0.008,0.011,0.014,0.016,0.021c0.068,0.097,0.125,0.2,0.177,0.308
		c0.374,0.795,0.236,1.771-0.418,2.426l-2.534,2.534h0.93h0.929l1.604-1.606c0.906-0.905,1.2-2.195,0.886-3.354h3.513
		c1.369,0,2.484,1.113,2.484,2.482v2.484H372.104z"/>
	<path d="M378.629,47.553h-12.936c-2.094,0-3.795-1.705-3.795-3.797v-3.811c0-2.092,1.701-3.797,3.795-3.797h12.936
		c0.362,0,0.656,0.295,0.656,0.657v10.09C379.285,47.258,378.992,47.553,378.629,47.553z M365.695,37.463
		c-1.369,0-2.483,1.113-2.483,2.482v3.811c0,1.369,1.115,2.482,2.483,2.482h12.275v-8.775H365.695z"/>
	<circle cx="367.906" cy="41.85" r="1.035"/>
	<path d="M367.906,43.542c-0.934,0-1.692-0.759-1.692-1.692c0-0.932,0.761-1.691,1.692-1.691s1.691,0.76,1.691,1.691
		C369.598,42.783,368.839,43.542,367.906,43.542z M367.906,41.471c-0.209,0-0.379,0.172-0.379,0.379c0,0.209,0.17,0.379,0.379,0.379
		c0.208,0,0.379-0.17,0.379-0.379C368.285,41.643,368.115,41.471,367.906,41.471z"/>
	<path d="M232.588,165.13c0.311,0,0.602,0.048,0.873,0.144c0.271,0.098,0.542,0.248,0.812,0.449l0.26-1.295
		c-0.34-0.158-0.674-0.273-1-0.352c-0.327-0.079-0.653-0.115-0.979-0.115c-0.599,0-1.154,0.115-1.672,0.347
		c-0.516,0.233-0.958,0.565-1.324,0.998c-0.312,0.366-0.545,0.772-0.705,1.212c-0.16,0.446-0.24,0.918-0.24,1.42
		c0,0.762,0.252,1.375,0.757,1.836c0.503,0.461,1.179,0.691,2.021,0.691c0.318,0,0.657-0.033,1.014-0.105
		c0.354-0.067,0.728-0.172,1.113-0.309l0.276-1.391c-0.396,0.219-0.751,0.379-1.069,0.48c-0.316,0.101-0.619,0.153-0.899,0.153
		c-0.476,0-0.845-0.137-1.113-0.41c-0.271-0.276-0.403-0.65-0.403-1.136c0-0.749,0.221-1.371,0.656-1.867
		C231.398,165.384,231.939,165.13,232.588,165.13z"/>
	<path d="M238.324,165.525c-0.305,0-0.6,0.066-0.879,0.197c-0.279,0.134-0.56,0.335-0.836,0.606l0.492-2.52h-1.513
		l-1.271,6.536h1.51l0.454-2.316c0.086-0.428,0.239-0.764,0.464-1.004c0.225-0.244,0.488-0.363,0.8-0.363
		c0.185,0,0.323,0.046,0.422,0.146c0.103,0.099,0.149,0.236,0.149,0.414c0,0.062-0.012,0.152-0.027,0.264
		c-0.019,0.111-0.044,0.246-0.076,0.406l-0.478,2.453h1.51l0.56-2.867c0.022-0.125,0.041-0.246,0.057-0.357
		c0.012-0.109,0.018-0.205,0.018-0.297c0-0.41-0.117-0.73-0.351-0.959C239.092,165.64,238.758,165.525,238.324,165.525z"/>
	<path d="M243.173,165.525c-0.489,0-0.937,0.089-1.337,0.261c-0.402,0.175-0.747,0.429-1.035,0.765
		c-0.244,0.281-0.43,0.588-0.558,0.928c-0.127,0.337-0.192,0.686-0.192,1.043c0,0.619,0.201,1.1,0.6,1.439
		c0.398,0.334,0.966,0.508,1.699,0.508c0.375,0,0.743-0.034,1.107-0.102c0.363-0.064,0.729-0.164,1.095-0.299l0.23-1.167
		c-0.386,0.188-0.755,0.328-1.106,0.425c-0.354,0.093-0.686,0.14-1.001,0.14c-0.368,0-0.644-0.074-0.825-0.226
		c-0.185-0.15-0.276-0.379-0.276-0.687c0-0.016,0.002-0.041,0.005-0.074c0.003-0.03,0.003-0.057,0.003-0.072h3.521l0.051-0.239
		c0.033-0.149,0.059-0.284,0.074-0.409s0.022-0.242,0.022-0.355c0-0.575-0.188-1.031-0.562-1.369
		C244.314,165.697,243.809,165.525,243.173,165.525z M243.752,167.367c-0.004,0.039-0.012,0.076-0.021,0.111h-1.943
		c0.107-0.311,0.27-0.55,0.473-0.711c0.206-0.16,0.455-0.241,0.75-0.241c0.229,0,0.412,0.065,0.547,0.196
		c0.135,0.133,0.2,0.312,0.2,0.535C243.756,167.293,243.755,167.33,243.752,167.367z"/>
	<path d="M248.784,166.602c0.187,0,0.379,0.036,0.575,0.105c0.195,0.072,0.394,0.174,0.596,0.305l0.24-1.226
		c-0.232-0.085-0.465-0.151-0.702-0.194c-0.235-0.044-0.472-0.066-0.709-0.066c-0.515,0-0.972,0.078-1.366,0.232
		c-0.395,0.153-0.745,0.388-1.05,0.706c-0.275,0.288-0.486,0.612-0.632,0.974c-0.146,0.359-0.221,0.734-0.221,1.117
		c0,0.611,0.198,1.082,0.599,1.414c0.399,0.334,0.969,0.5,1.708,0.5c0.254,0,0.508-0.022,0.759-0.068
		c0.253-0.043,0.502-0.107,0.752-0.195l0.231-1.229c-0.205,0.138-0.42,0.241-0.647,0.313c-0.228,0.064-0.458,0.103-0.694,0.103
		c-0.353,0-0.625-0.09-0.818-0.271c-0.191-0.181-0.288-0.435-0.288-0.766c0-0.51,0.155-0.93,0.465-1.26
		C247.893,166.765,248.292,166.602,248.784,166.602z"/>
	<polygon points="256.035,165.64 254.264,165.64 252.234,167.35 252.922,163.81 251.41,163.81 250.143,170.346 
		251.65,170.346 252.044,168.315 253.57,170.346 255.288,170.346 253.301,167.818 	"/>
	<path d="M258.396,165.525c-0.472,0-0.898,0.084-1.287,0.254c-0.387,0.167-0.723,0.414-1,0.738
		c-0.242,0.279-0.426,0.591-0.558,0.926c-0.128,0.34-0.192,0.684-0.192,1.037c0,0.611,0.201,1.098,0.601,1.453
		c0.397,0.355,0.942,0.531,1.636,0.531c0.479,0,0.912-0.084,1.301-0.25c0.392-0.169,0.729-0.418,1.015-0.749
		c0.239-0.276,0.424-0.582,0.55-0.917c0.125-0.335,0.188-0.681,0.188-1.035c0-0.613-0.199-1.098-0.601-1.456
		C259.648,165.705,259.098,165.525,258.396,165.525z M258.695,168.861c-0.252,0.351-0.572,0.527-0.961,0.527
		c-0.26,0-0.459-0.076-0.596-0.231c-0.136-0.155-0.203-0.379-0.203-0.677c0-0.547,0.125-0.998,0.377-1.35s0.574-0.529,0.963-0.529
		c0.261,0,0.459,0.076,0.595,0.23c0.135,0.156,0.204,0.379,0.204,0.672C259.075,168.055,258.948,168.508,258.695,168.861z"/>
	<path d="M264.883,165.64l-0.455,2.317c-0.082,0.426-0.236,0.76-0.462,1.001s-0.489,0.361-0.803,0.361
		c-0.183,0-0.321-0.048-0.419-0.147c-0.098-0.098-0.146-0.233-0.146-0.41c0-0.066,0.008-0.154,0.023-0.266
		c0.018-0.111,0.043-0.25,0.076-0.408l0.475-2.448h-1.508l-0.551,2.874c-0.022,0.116-0.038,0.23-0.049,0.34
		c-0.014,0.111-0.02,0.212-0.02,0.312c0,0.414,0.119,0.733,0.354,0.96c0.234,0.228,0.566,0.339,0.996,0.339
		c0.312,0,0.611-0.064,0.895-0.2c0.283-0.134,0.553-0.338,0.812-0.609l-0.141,0.69h1.52l0.91-4.706H264.883z"/>
	<path d="M267.956,168.707l0.39-1.992h1.536l0.214-1.075h-1.537l0.256-1.335h-1.514l-0.861,4.404
		c-0.017,0.096-0.027,0.185-0.037,0.276c-0.008,0.087-0.014,0.173-0.014,0.251c0,0.356,0.119,0.633,0.358,0.822
		c0.237,0.191,0.584,0.287,1.038,0.287h1.263l0.216-1.076h-0.777c-0.2,0-0.346-0.029-0.432-0.084
		c-0.084-0.057-0.127-0.146-0.127-0.277c0-0.029,0.002-0.059,0.008-0.088C267.938,168.789,267.945,168.752,267.956,168.707z"/>
	<polygon points="205.146,159.117 202.754,170.295 205.646,170.295 208.039,159.117 	"/>
	<path d="M200.869,159.117l-3.012,7.605l-1.217-6.465c-0.144-0.725-0.707-1.141-1.333-1.141h-4.921l-0.068,0.323
		c1.009,0.22,2.157,0.575,2.852,0.95c0.426,0.232,0.548,0.434,0.688,0.982l2.305,8.922h3.058l4.686-11.178h-3.037V159.117z"/>
	<path d="M211.83,162.212c0.011-0.398,0.391-0.825,1.227-0.934c0.416-0.056,1.56-0.095,2.854,0.5l0.508-2.37
		c-0.695-0.254-1.593-0.497-2.704-0.497c-2.858,0-4.872,1.521-4.888,3.696c-0.02,1.611,1.438,2.507,2.531,3.041
		c1.127,0.549,1.504,0.899,1.5,1.391c-0.008,0.75-0.896,1.078-1.729,1.093c-1.453,0.021-2.298-0.392-2.971-0.707l-0.523,2.452
		c0.677,0.307,1.923,0.576,3.218,0.592c3.037,0,5.022-1.501,5.032-3.826C215.895,163.695,211.805,163.531,211.83,162.212z"/>
	<path d="M221.301,159.117c-0.555,0-1.021,0.322-1.23,0.819l-4.338,10.358h3.037l0.604-1.672h3.708l0.35,1.672h2.676
		l-2.336-11.178L221.301,159.117L221.301,159.117z M220.204,166.334l1.521-4.197l0.875,4.197H220.204z"/>
	<path d="M125.082,156.609H82.904c-0.283-0.597-0.887-1.012-1.59-1.012H58.788c-0.973,0-1.764,0.791-1.764,1.764
		v13.006c0,0.975,0.791,1.766,1.764,1.766h22.526c0.703,0,1.306-0.416,1.59-1.012h42.178c0.973,0,1.765-0.791,1.765-1.765v-10.983
		C126.847,157.402,126.055,156.609,125.082,156.609z M81.314,170.82H58.788c-0.249,0-0.45-0.203-0.45-0.453v-13.006
		c0-0.25,0.202-0.451,0.45-0.451h22.526c0.249,0,0.451,0.201,0.451,0.451v13.006C81.765,170.617,81.563,170.82,81.314,170.82z
		 M125.533,169.356c0,0.249-0.202,0.45-0.451,0.45H83.079v-11.884h42.003c0.249,0,0.451,0.202,0.451,0.45V169.356z"/>
	<path d="M72.895,163.271l-4.897-3.68c-0.291-0.217-0.702-0.158-0.92,0.131c-0.218,0.289-0.16,0.702,0.13,0.918
		l4.199,3.158l-4.199,3.155c-0.29,0.217-0.348,0.63-0.13,0.919c0.128,0.171,0.326,0.262,0.525,0.262
		c0.138,0,0.276-0.043,0.395-0.131l4.897-3.682c0.165-0.124,0.262-0.318,0.262-0.523C73.157,163.591,73.06,163.396,72.895,163.271z"
		/>
	<path d="M91.045,158.924c-0.256-0.256-0.672-0.256-0.929,0l-6.019,6.018c-0.257,0.256-0.257,0.673,0,0.928
		c0.127,0.129,0.295,0.193,0.464,0.193c0.168,0,0.336-0.064,0.464-0.193l6.019-6.018C91.302,159.596,91.302,159.18,91.045,158.924z"
		/>
	<path d="M95.322,158.904c-0.257-0.256-0.673-0.256-0.929,0l-8.979,8.979c-0.257,0.256-0.257,0.672,0,0.93
		c0.127,0.128,0.296,0.191,0.464,0.191s0.336-0.063,0.464-0.191l8.979-8.98C95.578,159.576,95.578,159.162,95.322,158.904z"/>
	<path d="M84.609,161.732c0.168,0,0.335-0.063,0.464-0.19l1.688-1.688c0.257-0.257,0.257-0.673,0-0.929
		c-0.256-0.258-0.672-0.258-0.929,0l-1.688,1.686c-0.256,0.256-0.257,0.674,0,0.931C84.272,161.669,84.441,161.732,84.609,161.732z"
		/>
	<path d="M99.558,158.926c-0.256-0.258-0.672-0.258-0.928,0l-8.983,8.982c-0.256,0.256-0.256,0.672,0,0.928
		c0.129,0.129,0.296,0.192,0.464,0.192s0.336-0.063,0.465-0.192l8.982-8.984C99.814,159.598,99.814,159.182,99.558,158.926z"/>
	<path d="M103.841,158.898c-0.257-0.257-0.672-0.257-0.928,0l-9.009,9.01c-0.257,0.256-0.257,0.672,0,0.928
		c0.128,0.129,0.296,0.192,0.464,0.192s0.335-0.063,0.464-0.192l9.008-9.008C104.098,159.57,104.098,159.154,103.841,158.898z"/>
	<path d="M108.086,158.912c-0.257-0.258-0.673-0.258-0.93,0l-8.982,8.983c-0.257,0.255-0.257,0.671,0,0.928
		c0.128,0.128,0.296,0.192,0.463,0.192c0.169,0,0.337-0.064,0.465-0.192l8.983-8.981
		C108.341,159.585,108.341,159.168,108.086,158.912z"/>
	<path d="M112.342,158.912c-0.256-0.258-0.672-0.258-0.928,0l-8.968,8.967c-0.256,0.258-0.256,0.674,0,0.93
		c0.128,0.13,0.297,0.193,0.465,0.193s0.336-0.063,0.464-0.193l8.967-8.967C112.599,159.585,112.599,159.168,112.342,158.912z"/>
	<path d="M116.461,159.051c-0.256-0.256-0.672-0.256-0.928,0l-8.872,8.872c-0.256,0.257-0.256,0.672,0,0.931
		c0.128,0.127,0.296,0.189,0.465,0.189c0.167,0,0.336-0.062,0.463-0.189l8.872-8.872
		C116.718,159.725,116.718,159.307,116.461,159.051z"/>
	<path d="M120.807,158.963c-0.257-0.258-0.672-0.258-0.929,0l-8.96,8.962c-0.256,0.255-0.256,0.671,0,0.929
		c0.128,0.127,0.297,0.189,0.465,0.189c0.167,0,0.335-0.062,0.464-0.189l8.96-8.965
		C121.064,159.635,121.064,159.217,120.807,158.963z"/>
	<path d="M124.535,159.496L124.535,159.496c-0.001,0-0.001,0-0.002-0.002c-0.257-0.257-0.672-0.257-0.929,0
		l-8.423,8.426c-0.129,0.127-0.193,0.297-0.192,0.465c-0.001,0.17,0.062,0.339,0.192,0.469c0.128,0.127,0.296,0.189,0.465,0.189
		c0.167,0,0.336-0.062,0.464-0.189l8.426-8.428C124.792,160.17,124.792,159.754,124.535,159.496z"/>
	<path d="M124.548,163.742l-0.002-0.002l-0.001-0.002c-0.256-0.257-0.672-0.257-0.929,0l-4.176,4.177
		c-0.256,0.257-0.256,0.673,0,0.929c0.001,0,0.001,0.002,0.001,0.002c0.001,0,0.001,0,0.001,0c0.129,0.13,0.297,0.193,0.465,0.193
		c0.168,0,0.336-0.063,0.464-0.193l4.175-4.176C124.805,164.414,124.805,163.998,124.548,163.742z"/>
	<path d="M123.673,167.939l-0.031,0.031c-0.257,0.256-0.257,0.674,0,0.931c0.128,0.127,0.296,0.19,0.464,0.19
		s0.336-0.063,0.464-0.19l0.032-0.033c0.256-0.256,0.256-0.672,0-0.929S123.93,167.682,123.673,167.939z"/>
	<path d="M325.793,147.87h-35.357c-1.135,0-2.058,0.924-2.058,2.058v34.161c0.001,1.132,0.923,2.054,2.056,2.054
		h35.359c1.134,0,2.057-0.924,2.057-2.059v-34.158C327.85,148.794,326.927,147.87,325.793,147.87z M290.436,149.184h35.359
		c0.408,0,0.741,0.334,0.742,0.742v7.109h-36.846v-7.107C289.691,149.519,290.025,149.184,290.436,149.184z M325.793,184.83h-35.359
		v0.654v-0.654c-0.41,0-0.742-0.334-0.742-0.742v-25.739h36.847v25.735C326.537,184.496,326.203,184.83,325.793,184.83z"/>
	<path d="M291.42,154.947c0.127,0.129,0.296,0.192,0.464,0.192s0.337-0.063,0.464-0.192l1.038-1.038l1.038,1.038
		c0.127,0.129,0.295,0.192,0.463,0.192c0.17,0,0.338-0.063,0.465-0.192c0.256-0.258,0.256-0.672,0-0.931l-1.037-1.036l1.037-1.037
		c0.256-0.256,0.256-0.672,0-0.928c-0.256-0.256-0.672-0.256-0.929,0l-1.036,1.037l-1.039-1.037c-0.255-0.256-0.672-0.256-0.928,0
		c-0.257,0.256-0.257,0.672,0,0.928l1.037,1.037l-1.037,1.036C291.163,154.275,291.163,154.689,291.42,154.947z"/>
	<path d="M302.393,155.14h3.004c0.361,0,0.656-0.296,0.656-0.657v-3.003c0-0.363-0.294-0.659-0.656-0.659h-3.004
		c-0.36,0-0.656,0.296-0.656,0.659v3.003C301.736,154.844,302.031,155.14,302.393,155.14z M303.05,152.135h1.688v1.691h-1.688
		V152.135z"/>
	<path d="M296.982,153.638h3.004c0.363,0,0.656-0.294,0.656-0.657c0-0.361-0.293-0.657-0.656-0.657h-3.004
		c-0.361,0-0.656,0.296-0.656,0.657C296.327,153.344,296.621,153.638,296.982,153.638z"/>
	<path d="M309.723,168.49l-3.72-1.566c-0.333-0.142-0.719,0.018-0.858,0.352c-0.142,0.334,0.017,0.719,0.351,0.859
		l3.72,1.565c0.083,0.036,0.17,0.054,0.254,0.054c0.258,0,0.5-0.152,0.606-0.402C310.214,169.016,310.057,168.632,309.723,168.49z"
		/>
	<path d="M314.504,167.547c0.083,0.034,0.17,0.051,0.254,0.051c0.256,0,0.5-0.152,0.605-0.402l1.566-3.719
		c0.141-0.334-0.017-0.72-0.352-0.859c-0.334-0.143-0.719,0.016-0.86,0.35l-1.565,3.719
		C314.014,167.021,314.17,167.404,314.504,167.547z"/>
	<path d="M312.275,166.675l-1.522-3.738c-0.137-0.335-0.521-0.497-0.854-0.359c-0.336,0.136-0.498,0.519-0.36,0.856
		l1.521,3.737c0.104,0.255,0.352,0.409,0.608,0.409c0.082,0,0.167-0.014,0.248-0.049
		C312.25,167.395,312.413,167.012,312.275,166.675z"/>
	<path d="M309.202,171.578l-3.738,1.525c-0.335,0.137-0.497,0.52-0.36,0.856c0.104,0.254,0.352,0.408,0.609,0.408
		c0.082,0,0.166-0.015,0.247-0.05l3.738-1.521c0.336-0.137,0.497-0.521,0.358-0.856C309.92,171.605,309.539,171.443,309.202,171.578
		z"/>
	<path d="M320.422,167.009l-3.742,1.524c-0.336,0.139-0.498,0.521-0.359,0.855c0.104,0.257,0.35,0.41,0.607,0.41
		c0.083,0,0.167-0.016,0.247-0.049l3.744-1.525c0.335-0.136,0.498-0.519,0.36-0.855
		C321.143,167.034,320.758,166.872,320.422,167.009z"/>
	<path d="M313.04,168.951c-0.188-0.188-0.472-0.244-0.715-0.143c-0.246,0.103-0.404,0.342-0.404,0.607l0.004,10.558
		c0,0.262,0.154,0.496,0.396,0.603c0.238,0.104,0.517,0.057,0.709-0.12l1.953-1.812l1.635,3.928
		c0.064,0.162,0.193,0.291,0.355,0.356c0.08,0.031,0.164,0.05,0.25,0.05s0.172-0.019,0.252-0.052l1.229-0.51
		c0.334-0.142,0.493-0.522,0.354-0.858l-1.634-3.929l2.663-0.108c0.262-0.011,0.491-0.172,0.585-0.416
		c0.095-0.244,0.037-0.521-0.147-0.705L313.04,168.951z"/>
	<path d="M92.716,78.916c-1.546-0.539-10.777-3.799-12.894-4.547v-1.686c1.152-0.295,2.007-1.337,2.007-2.579
		c0-1.466-1.195-2.663-2.665-2.663c-1.468,0-2.663,1.197-2.663,2.663c0,0.362,0.294,0.657,0.658,0.657
		c0.362,0,0.657-0.295,0.657-0.657c0-0.744,0.605-1.351,1.349-1.351c0.746,0,1.351,0.606,1.351,1.351s-0.605,1.351-1.351,1.351
		c-0.362,0-0.657,0.295-0.657,0.656v2.258c-2.116,0.748-11.347,4.008-12.893,4.547c-2.334,0.811-3.672,2.021-3.672,3.317
		c0,2.656,3.185,2.656,4.716,2.657h25.015l0,0c1.53-0.001,4.715-0.001,4.715-2.657C96.388,80.937,95.05,79.727,92.716,78.916z
		 M91.671,83.577H66.658c-2.512-0.001-3.402-0.353-3.402-1.344c0-0.384,0.583-1.31,2.791-2.079
		c1.608-0.561,11.513-4.057,13.118-4.623c1.605,0.566,11.511,4.062,13.12,4.623c2.208,0.77,2.791,1.695,2.791,2.079
		C95.075,83.225,94.185,83.576,91.671,83.577z"/>
	<path d="M291.598,65.464h-0.943v-1.871c0-0.364-0.293-0.657-0.655-0.657H270.82c-1.057,0-1.92,0.863-1.92,1.922
		v27.771c0,1.059,0.863,1.92,1.92,1.92h20.777c0.361,0,0.654-0.294,0.654-0.657V66.123C292.253,65.758,291.96,65.464,291.598,65.464
		z M270.82,64.249h18.521v1.215h-1.606h-4.243h-12.669c-0.336,0-0.607-0.271-0.607-0.606S270.486,64.249,270.82,64.249z
		 M290.939,93.234H270.82c-0.336,0-0.607-0.271-0.607-0.605v-25.95c0.191,0.065,0.396,0.099,0.607,0.099h12.013v10.174
		c0,0.264,0.157,0.502,0.399,0.604c0.084,0.033,0.17,0.054,0.256,0.054c0.166,0,0.33-0.063,0.457-0.185l1.666-1.602l1.666,1.602
		c0.188,0.182,0.471,0.234,0.713,0.131c0.242-0.102,0.4-0.34,0.4-0.604V66.777h2.549V93.234L290.939,93.234z"/>
	<path d="M64.633,286.221c-4.367,0-7.92-3.553-7.92-7.92s3.553-7.92,7.92-7.92c4.368,0,7.921,3.553,7.921,7.92
		S69.001,286.221,64.633,286.221z M64.633,271.695c-3.643,0-6.607,2.962-6.607,6.604c0,3.645,2.964,6.605,6.607,6.605
		c3.644,0,6.607-2.965,6.607-6.605C71.24,274.657,68.276,271.695,64.633,271.695z"/>
	<path d="M64.633,282.861c-2.515,0-4.561-2.045-4.561-4.562c0-2.516,2.046-4.562,4.561-4.562
		c2.515,0,4.562,2.047,4.562,4.562C69.195,280.816,67.147,282.861,64.633,282.861z M64.633,275.055c-1.79,0-3.247,1.455-3.247,3.246
		s1.457,3.248,3.247,3.248c1.792,0,3.248-1.457,3.248-3.248S66.424,275.055,64.633,275.055z"/>
	<path d="M69.934,261.117h-13.72c-0.362,0-0.657-0.295-0.657-0.657v-10.276c0-0.363,0.294-0.656,0.657-0.656h4.481
		c0.186,0,0.363,0.08,0.488,0.219c0.083,0.094,8.264,9.173,9.243,10.279c0.171,0.193,0.212,0.471,0.107,0.705
		C70.427,260.965,70.192,261.117,69.934,261.117z M56.871,259.803h11.595c-2.182-2.434-7.029-7.812-8.063-8.962h-3.532V259.803z"/>
	<path d="M59.872,264.4h-3.658c-0.362,0-0.657-0.293-0.657-0.656c0-0.361,0.294-0.656,0.657-0.656h3.658
		c0.363,0,0.657,0.295,0.657,0.656C60.529,264.107,60.235,264.4,59.872,264.4z"/>
	<path d="M29.081,277.754h28.18c0.01-0.449,0.059-0.889,0.146-1.312H28.862
		C28.975,276.863,29.048,277.303,29.081,277.754z"/>
	<path d="M48.872,241.238H9.336c-2.678,0-4.857,2.182-4.857,4.861V272.9c0.001,2.678,2.179,4.854,4.854,4.854H14.6
		c0.034-0.451,0.107-0.891,0.219-1.312H9.335l-0.003,0.656v-0.656c-1.951,0-3.539-1.588-3.54-3.541V246.1
		c0-1.955,1.589-3.547,3.544-3.547h39.539c1.951,0,3.539,1.588,3.54,3.537v26.803c0,1.955-1.59,3.549-3.544,3.549H28.862
		c0.112,0.424,0.186,0.861,0.219,1.312h19.791c2.678,0,4.857-2.181,4.857-4.861V246.09
		C53.728,243.414,51.551,241.238,48.872,241.238z"/>
	<path d="M21.84,286.221c-4.367,0-7.92-3.553-7.92-7.92s3.553-7.92,7.92-7.92c4.368,0,7.92,3.553,7.92,7.92
		S26.208,286.221,21.84,286.221z M21.84,271.695c-3.643,0-6.607,2.962-6.607,6.604c0,3.645,2.964,6.605,6.607,6.605
		s6.607-2.965,6.607-6.605C28.447,274.657,25.483,271.695,21.84,271.695z"/>
	<path d="M21.84,282.861c-2.515,0-4.561-2.045-4.561-4.562c0-2.516,2.045-4.562,4.561-4.562
		c2.516,0,4.561,2.047,4.561,4.562C26.401,280.816,24.355,282.861,21.84,282.861z M21.84,275.055c-1.791,0-3.247,1.455-3.247,3.246
		s1.456,3.248,3.247,3.248s3.248-1.457,3.248-3.248S23.631,275.055,21.84,275.055z"/>
	<path d="M76.208,273.087c-0.363,0-0.657-0.294-0.657-0.657v-7.387c0-0.363,0.294-0.657,0.657-0.657
		c0.362,0,0.657,0.294,0.657,0.657v7.387C76.865,272.793,76.57,273.087,76.208,273.087z"/>
	<path d="M76.539,261.145c-0.624-0.359-1.213-0.705-1.577-1.119c-1.251-1.416-11.708-13.021-11.812-13.139
		c-0.125-0.139-0.302-0.217-0.487-0.217h-9.589v1.312h9.296c1.449,1.606,10.457,11.607,11.608,12.912
		c0.504,0.569,1.214,0.982,1.9,1.385c1.329,0.777,2.135,1.322,2.136,2.375v8.238c0,1.953-1.59,3.547-3.545,3.547h-2.834
		c0.087,0.426,0.137,0.862,0.146,1.312h2.688c2.679,0,4.858-2.182,4.858-4.859v-8.238C79.326,262.771,77.78,261.871,76.539,261.145z
		"/>
	<path d="M227.42,95.969h1.583c1.271,0,2.306-1.033,2.306-2.303v-7.127c0-1.27-1.033-2.305-2.306-2.305h-15.019
		c-1.271,0-2.305,1.035-2.305,2.305v7.127c0,1.27,1.032,2.303,2.305,2.303h1.578l-4.19,43.562c-0.021,0.211,0.062,0.417,0.221,0.557
		l9.464,8.279c0.125,0.107,0.279,0.162,0.435,0.162s0.308-0.055,0.432-0.162l9.466-8.279c0.158-0.14,0.24-0.346,0.221-0.557
		L227.42,95.969z M212.994,93.666v-7.127c0-0.545,0.445-0.99,0.992-0.992h15.018c0.547,0.002,0.992,0.447,0.992,0.992v7.127
		c0,0.545-0.443,0.989-0.992,0.989h-2.296c-0.004,0-0.007,0-0.011,0h-10.408c-0.003,0-0.005,0-0.008,0h-2.295
		C213.439,94.655,212.994,94.211,212.994,93.666z M221.492,146.999l-8.779-7.677l4.171-43.354h9.218l4.168,43.354L221.492,146.999z"
		/>
	<path d="M110.753,260.007H96.494c-5.022,0-9.108,4.086-9.108,9.108c0,5.021,4.086,9.109,9.108,9.109h14.259
		c5.022,0,9.108-4.089,9.108-9.109C119.861,264.093,115.775,260.007,110.753,260.007z M110.753,276.91H96.494
		c-4.297,0-7.795-3.496-7.795-7.795s3.498-7.795,7.795-7.795h14.259c4.298,0,7.794,3.496,7.794,7.795S115.051,276.91,110.753,276.91
		z"/>
	<path d="M98.153,268.459h-2.095v-2.096c0-0.361-0.293-0.655-0.656-0.655c-0.363,0-0.657,0.294-0.657,0.655v2.096
		H92.65c-0.363,0-0.656,0.294-0.656,0.656c0,0.361,0.293,0.656,0.656,0.656h2.095v2.094c0,0.363,0.293,0.656,0.657,0.656
		c0.362,0,0.656-0.293,0.656-0.656v-2.094h2.095c0.362,0,0.656-0.295,0.656-0.656C98.809,268.753,98.515,268.459,98.153,268.459z"/>
	<circle cx="111.102" cy="266.776" r="1.155"/>
	<circle cx="111.102" cy="271.453" r="1.156"/>
	<circle cx="113.44" cy="269.115" r="1.156"/>
	<circle cx="108.763" cy="269.115" r="1.156"/>
	<g>
		<g>
			<path d="M55.231,36.104c-1.562,0-2.833-1.271-2.833-2.834c0-0.361,0.295-0.656,0.657-0.656
				c0.364,0,0.657,0.295,0.657,0.656c0,0.838,0.682,1.52,1.519,1.52s1.519-0.682,1.519-1.52V14.2c0-0.361,0.294-0.656,0.657-0.656
				c0.364,0,0.657,0.295,0.657,0.656v19.07C58.063,34.832,56.793,36.104,55.231,36.104z"/>
		</g>
		<g>
			<path d="M66.082,16.062c-0.354,0-0.641-0.28-0.655-0.63c-0.104-0.247-0.985-0.822-2.235-0.822
				c-1.249,0-2.129,0.575-2.234,0.822c-0.015,0.35-0.303,0.63-0.656,0.63c-0.353,0-0.642-0.28-0.656-0.63
				c-0.104-0.247-0.984-0.822-2.234-0.822s-2.13,0.575-2.235,0.822c-0.006,0.164-0.075,0.32-0.192,0.438
				c-0.123,0.123-0.29,0.192-0.464,0.192c-0.354,0-0.647-0.28-0.663-0.63c-0.104-0.247-0.985-0.822-2.234-0.822
				s-2.13,0.575-2.235,0.822c-0.014,0.35-0.302,0.63-0.656,0.63s-0.642-0.28-0.656-0.63c-0.104-0.247-0.985-0.822-2.235-0.822
				c-1.206,0-2.098,0.621-2.249,0.867c-0.172,0.283-0.53,0.393-0.832,0.256c-0.302-0.137-0.455-0.478-0.355-0.794
				c2.06-6.595,8.089-11.022,15.001-11.022c6.913,0,12.941,4.428,15.002,11.022c0.099,0.316-0.054,0.657-0.356,0.794
				c-0.301,0.137-0.659,0.025-0.831-0.256c-0.151-0.247-1.042-0.867-2.249-0.867c-1.25,0-2.13,0.575-2.234,0.822
				C66.725,15.781,66.436,16.062,66.082,16.062z M51.623,13.296c1.163,0,2.239,0.373,2.894,0.921
				c0.655-0.548,1.731-0.921,2.894-0.921c1.162,0,2.235,0.372,2.891,0.919c0.654-0.547,1.729-0.919,2.89-0.919
				c1.162,0,2.236,0.372,2.891,0.919c0.656-0.547,1.73-0.919,2.891-0.919c0.524,0,1.029,0.087,1.487,0.233
				c-2.338-5.036-7.37-8.302-13.053-8.302c-5.682,0-10.714,3.269-13.052,8.302c0.457-0.146,0.962-0.233,1.486-0.233
				c1.161,0,2.236,0.372,2.891,0.919C49.387,13.668,50.461,13.296,51.623,13.296z"/>
		</g>
	</g>
</g>
</svg>
