<?xml version="1.0" encoding="UTF-8" standalone="no"?>
<svg
   xmlns="http://www.w3.org/2000/svg"
   width="10"
   height="10"
   viewBox="0 0 10 10"
   xml:space="preserve"><!--<text x="6" y="15" fill="#1a1f71">✓</text></svg>--><path
     d="M 3.716,7.309 C 3.825,7.171 3.903,7.078 3.976,6.979 5.597,4.786 7.221,2.589 8.842,0.393 8.987,0.195 9.138,0.034 9.4,0.043 9.802,0.058 10.052,0.466 9.889,0.863 9.854,0.949 9.803,1.032 9.751,1.112 8.233,3.567 6.715,6.02 5.193,8.473 4.96,8.853 4.715,9.226 4.47,9.596 4.172,10.042 3.713,10.083 3.363,9.672 2.325,8.459 1.29,7.238 0.262,6.016 -0.019,5.683 0,5.192 0.282,4.919 0.551,4.661 0.942,4.716 1.255,5.017 2.061,5.78 2.876,6.527 3.716,7.309 z"
     fill="#1a1f71" /></svg>