<svg xmlns="http://www.w3.org/2000/svg" width="10" height="6" viewBox="0 0 10 6"><path fill-rule="evenodd" clip-rule="evenodd" fill="#4B4B4B" d="M5 5.97c-.172 0-.31-.126-.43-.245-.848-.855-1.69-1.72-2.53-2.587C1.45 2.533.866 1.92.28 1.312-.002 1.016-.055.59.155.282.37-.028.715-.053 1 .24c1.285 1.32 2.568 2.64 3.845 3.97.124.13.192.122.312-.003C6.413 2.9 7.677 1.603 8.937.304c.298-.307.572-.355.803-.14.32.293.31.804-.026 1.153-.45.468-.91.927-1.362 1.393-.976 1.007-1.95 2.017-2.928 3.017-.112.115-.252.242-.424.242z"/></svg>