<svg version="1.1" xmlns="http://www.w3.org/2000/svg"  x="0px" y="0px" width="10px" height="6px"  viewBox="0 0 10 6">  <path fill="#FFFFFF" d="M5,5.97c-0.172,0-0.31-0.126-0.43-0.245C3.722,4.87,2.88,4.005,2.04,3.138   C1.45,2.533,0.866,1.92,0.28,1.312c-0.282-0.296-0.335-0.722-0.125-1.03C0.37-0.028,0.715-0.053,1,0.24   c1.285,1.32,2.568,2.64,3.845,3.97c0.124,0.13,0.192,0.122,0.312-0.003c1.256-1.307,2.52-2.604,3.78-3.903   c0.297-0.307,0.571-0.355,0.803-0.14c0.32,0.293,0.31,0.804-0.026,1.153C9.264,1.785,8.805,2.244,8.352,2.71   C7.376,3.717,6.402,4.727,5.424,5.727C5.312,5.842,5.172,5.969,5,5.97L5,5.97z"/></svg>