<svg version="1.1" id="Layer_1"  xmlns="http://www.w3.org/2000/svg" x="0px" y="0px" width="10px" height="6px"  viewBox="0 0 10 6"><path fill="#FFFFFF" d="M5,0.032c0.172,0,0.31,0.126,0.43,0.245c0.847,0.854,1.69,1.72,2.53,2.586   c0.59,0.605,1.174,1.218,1.76,1.826c0.282,0.296,0.335,0.723,0.125,1.03C9.63,6.029,9.285,6.055,9,5.762   c-1.285-1.32-2.568-2.64-3.845-3.97C5.031,1.662,4.963,1.67,4.843,1.795c-1.256,1.307-2.52,2.604-3.78,3.902   C0.766,6.005,0.491,6.053,0.26,5.838c-0.32-0.293-0.31-0.804,0.026-1.153c0.45-0.468,0.909-0.927,1.362-1.393   c0.976-1.007,1.949-2.017,2.928-3.017C4.688,0.16,4.828,0.033,5,0.032L5,0.032z"/></svg>