<?xml version="1.0" encoding="utf-8"?>
<!-- Generator: Adobe Illustrator 16.0.0, SVG Export Plug-In . SVG Version: 6.00 Build 0)  -->
<!DOCTYPE svg PUBLIC "-//W3C//DTD SVG 1.1//EN" "http://www.w3.org/Graphics/SVG/1.1/DTD/svg11.dtd">
<svg version="1.1" id="Layer_1" xmlns="http://www.w3.org/2000/svg" xmlns:xlink="http://www.w3.org/1999/xlink" x="0" y="0"
	 width="100px" height="15px" viewBox="0 0 100 15" xml:space="preserve">

<path fill="#FFFFFF" d="M51.866,13.902c-0.511,0.178-0.994,0.312-1.46,0.406c-0.466,0.092-0.91,0.135-1.326,0.135
	c-1.105,0-1.988-0.301-2.648-0.904c-0.662-0.609-0.992-1.41-0.992-2.41c0-0.656,0.104-1.277,0.313-1.859
	c0.209-0.584,0.516-1.11,0.925-1.59c0.48-0.564,1.06-1,1.737-1.307c0.677-0.305,1.407-0.456,2.188-0.456
	c0.428,0,0.854,0.05,1.285,0.15c0.428,0.103,0.864,0.253,1.31,0.46l-0.341,1.703c-0.353-0.269-0.707-0.463-1.062-0.59
	C51.441,7.513,51.059,7.45,50.65,7.45c-0.851,0-1.561,0.328-2.13,0.981c-0.574,0.65-0.86,1.471-0.86,2.447
	c0,0.635,0.176,1.128,0.528,1.49c0.354,0.359,0.84,0.535,1.46,0.535c0.37,0,0.763-0.065,1.18-0.196
	c0.417-0.136,0.884-0.347,1.402-0.634l-0.364,1.824V13.902z M59.848,10.529l-0.734,3.756h-1.973l0.619-3.215
	c0.045-0.211,0.077-0.387,0.102-0.53c0.023-0.146,0.035-0.261,0.035-0.347c0-0.234-0.062-0.416-0.191-0.543
	c-0.13-0.131-0.312-0.195-0.557-0.195c-0.406,0-0.76,0.16-1.049,0.477c-0.291,0.318-0.498,0.76-0.607,1.318l-0.598,3.033H52.92
	l1.66-8.568h1.982L55.92,9.02c0.359-0.354,0.73-0.619,1.096-0.789c0.365-0.174,0.75-0.258,1.15-0.258
	c0.566,0,1.006,0.147,1.314,0.444c0.31,0.3,0.459,0.717,0.459,1.256c0,0.12-0.006,0.25-0.02,0.395
	C59.904,10.206,59.88,10.361,59.848,10.529 M67.12,11.434l-0.068,0.312h-4.614c0,0.02,0,0.055-0.006,0.096
	c-0.005,0.047-0.007,0.076-0.007,0.098c0,0.402,0.12,0.701,0.363,0.896c0.237,0.2,0.601,0.297,1.08,0.297
	c0.416,0,0.854-0.06,1.315-0.186c0.457-0.123,0.941-0.312,1.447-0.557l-0.3,1.529c-0.479,0.18-0.96,0.311-1.435,0.393
	c-0.478,0.088-0.961,0.131-1.451,0.131c-0.961,0-1.703-0.223-2.229-0.666c-0.521-0.443-0.782-1.069-0.782-1.885
	c0-0.47,0.086-0.924,0.25-1.365c0.17-0.441,0.409-0.848,0.729-1.217c0.38-0.436,0.83-0.77,1.358-1
	c0.524-0.227,1.109-0.339,1.754-0.339c0.834,0,1.496,0.22,1.983,0.666c0.488,0.443,0.736,1.043,0.736,1.793
	c0,0.146-0.017,0.305-0.03,0.471c-0.02,0.162-0.05,0.34-0.092,0.535 M65.26,10.529c0.01-0.045,0.02-0.1,0.024-0.146
	c0.004-0.05,0.008-0.098,0.008-0.145c0-0.295-0.09-0.527-0.271-0.7c-0.17-0.173-0.41-0.261-0.713-0.261
	c-0.385,0-0.713,0.105-0.98,0.32c-0.27,0.209-0.479,0.521-0.62,0.93h2.55L65.26,10.529z M73.73,8.311l-0.316,1.607
	c-0.268-0.176-0.52-0.311-0.78-0.402c-0.26-0.092-0.51-0.14-0.755-0.14c-0.646,0-1.17,0.218-1.578,0.649
	c-0.404,0.431-0.607,0.98-0.607,1.654c0,0.43,0.125,0.764,0.38,1c0.254,0.232,0.61,0.352,1.073,0.352
	c0.308,0,0.607-0.045,0.91-0.137c0.297-0.093,0.576-0.23,0.848-0.41L72.6,14.1c-0.324,0.113-0.652,0.2-0.984,0.26
	c-0.33,0.055-0.663,0.08-0.995,0.08c-0.97,0-1.716-0.213-2.238-0.649S67.6,12.738,67.6,11.938c0-0.5,0.096-0.99,0.289-1.463
	c0.189-0.477,0.469-0.9,0.825-1.281c0.399-0.412,0.86-0.721,1.377-0.922c0.519-0.201,1.115-0.3,1.79-0.3
	c0.312,0,0.62,0.027,0.93,0.085c0.308,0.057,0.616,0.139,0.92,0.256 M75.318,5.715h1.986l-0.906,4.645l2.662-2.244h2.323
	L77.8,10.973l2.603,3.312H78.15l-2-2.66l-0.517,2.66h-1.977L75.318,5.715z M84.48,7.968c0.916,0,1.64,0.233,2.162,0.698
	c0.524,0.47,0.787,1.104,0.787,1.906c0,0.465-0.082,0.918-0.246,1.357c-0.166,0.436-0.406,0.836-0.724,1.199
	c-0.375,0.436-0.813,0.76-1.328,0.98c-0.508,0.22-1.075,0.33-1.704,0.33c-0.906,0-1.619-0.23-2.146-0.696
	c-0.523-0.468-0.785-1.103-0.785-1.908c0-0.46,0.084-0.912,0.252-1.354c0.166-0.442,0.412-0.85,0.728-1.215
	c0.362-0.427,0.805-0.75,1.312-0.972c0.51-0.216,1.069-0.328,1.69-0.328 M84.314,9.376c-0.512,0-0.932,0.233-1.26,0.694
	c-0.332,0.466-0.496,1.05-0.496,1.77c0,0.391,0.09,0.688,0.269,0.891c0.177,0.199,0.437,0.306,0.776,0.306
	c0.51,0,0.934-0.229,1.26-0.695c0.336-0.466,0.498-1.054,0.498-1.772c0-0.383-0.09-0.68-0.268-0.881
	c-0.176-0.207-0.436-0.31-0.779-0.31 M88.039,11.886l0.72-3.768h1.979l-0.622,3.21c-0.043,0.208-0.076,0.388-0.101,0.533
	c-0.021,0.148-0.035,0.265-0.035,0.351c0,0.229,0.064,0.41,0.195,0.54c0.131,0.126,0.312,0.191,0.551,0.191
	c0.409,0,0.756-0.156,1.056-0.473c0.29-0.316,0.491-0.757,0.604-1.318L92.98,8.12h1.979l-1.192,6.167h-1.988l0.184-0.904
	c-0.338,0.356-0.691,0.624-1.064,0.801c-0.371,0.18-0.76,0.264-1.172,0.264c-0.561,0-0.996-0.147-1.307-0.442
	c-0.311-0.3-0.46-0.717-0.46-1.265c0-0.127,0.005-0.262,0.021-0.407c0.006-0.142,0.029-0.29,0.06-0.444"/>
<path fill="#FFFFFF" d="M98.134,6.366l-0.336,1.75h2.017l-0.279,1.409h-2.018l-0.506,2.61c-0.017,0.06-0.025,0.106-0.029,0.15
	c-0.006,0.036-0.01,0.077-0.01,0.11c0,0.17,0.057,0.291,0.166,0.363c0.11,0.072,0.301,0.11,0.561,0.11h1.02l-0.277,1.409h-1.656
	c-0.598,0-1.051-0.125-1.36-0.377c-0.313-0.248-0.468-0.607-0.468-1.078c0-0.104,0.005-0.213,0.016-0.33
	c0.01-0.117,0.026-0.234,0.051-0.36l1.127-5.775l1.98,0.005L98.134,6.366z M16.394,0.902l-5.59,13.334H7.158L4.407,3.593
	c-0.165-0.654-0.31-0.893-0.82-1.17c-0.83-0.45-2.197-0.872-3.4-1.133l0.08-0.388h5.87c0.748,0,1.42,0.498,1.59,1.36l1.45,7.716
	L12.773,0.9l3.625,0.002 M30.684,9.882c0.017-3.517-4.865-3.71-4.832-5.287c0.013-0.476,0.466-0.984,1.464-1.115
	c0.495-0.064,1.858-0.114,3.403,0.597l0.607-2.827c-0.832-0.304-1.9-0.593-3.228-0.593c-3.41,0-5.81,1.814-5.83,4.408
	c-0.023,1.92,1.713,2.992,3.02,3.628c1.345,0.654,1.795,1.074,1.79,1.66c-0.008,0.894-1.07,1.285-2.064,1.299
	c-1.734,0.029-2.74-0.465-3.544-0.84l-0.623,2.924c0.805,0.369,2.293,0.689,3.836,0.705c3.624,0.004,5.995-1.783,6.006-4.557
	 M39.694,14.238h3.19L40.09,0.902h-2.944c-0.663,0-1.22,0.387-1.47,0.98L30.5,14.234h3.62l0.722-1.991h4.424l0.42,1.991
	L39.694,14.238z M35.844,9.516l1.815-5.008L38.7,9.516h-2.86H35.844z M21.323,0.902L18.47,14.236h-3.45l2.85-13.334H21.323z"/>
</svg>
