<?xml version="1.0" encoding="utf-8"?><!DOCTYPE svg PUBLIC "-//W3C//DTD SVG 1.1//EN" "http://www.w3.org/Graphics/SVG/1.1/DTD/svg11.dtd"><svg version="1.1" xmlns="http://www.w3.org/2000/svg" xmlns:xlink="http://www.w3.org/1999/xlink" x="0" y="0" viewBox="0 0 20 20" ><path d="M10,2.156l7.928,15.688H2.072L10,2.156 M10,0.156c-0.754,0-1.445,0.425-1.785,1.098L0.287,16.941 c-0.313,0.619-0.282,1.357,0.082,1.949c0.364,0.592,1.009,0.952,1.704,0.952h15.854c0.694,0,1.34-0.36,1.703-0.952 c0.364-0.592,0.396-1.33,0.082-1.949L11.785,1.254C11.443,0.581,10.754,0.156,10,0.156L10,0.156z"/><g> <path d="M9.4,11.178c-0.107-0.554-0.188-0.991-0.241-1.316C9.105,9.536,9.07,9.296,9.057,9.138  C9.042,8.982,9.034,8.845,9.034,8.732c0-0.276,0.089-0.499,0.264-0.666c0.177-0.17,0.411-0.254,0.701-0.254  c0.291,0,0.523,0.084,0.7,0.254c0.176,0.167,0.264,0.39,0.264,0.666c0,0.116-0.006,0.25-0.022,0.406  c-0.017,0.158-0.05,0.399-0.104,0.723c-0.054,0.326-0.134,0.766-0.242,1.316c-0.105,0.55-0.25,1.279-0.435,2.181H9.838  C9.653,12.457,9.506,11.728,9.4,11.178z M9.331,14.429c0.183-0.186,0.407-0.277,0.667-0.277c0.26,0,0.483,0.092,0.667,0.277  c0.184,0.184,0.275,0.403,0.275,0.664c0,0.26-0.092,0.478-0.275,0.65c-0.183,0.17-0.406,0.258-0.667,0.258  c-0.259,0-0.481-0.088-0.667-0.258c-0.182-0.173-0.276-0.391-0.276-0.65C9.055,14.832,9.149,14.612,9.331,14.429z"/></g></svg>